<svg width="276" height="159" viewBox="0 0 276 159" fill="none" xmlns="http://www.w3.org/2000/svg">
<g filter="url(#filter0_f_7207_72313)">
<path d="M117.714 105.21C131.211 112.701 151.476 100.286 162.977 77.4804C174.478 54.6751 172.86 30.1152 159.363 22.6243C145.866 15.1334 125.6 27.5482 114.099 50.3535C102.598 73.1588 104.217 97.7187 117.714 105.21Z" fill="#C2BDFC"/>
<path d="M138.621 110.737C152.118 118.228 172.384 105.813 183.885 83.008C195.386 60.2027 193.767 35.6428 180.27 28.1519C166.773 20.661 146.508 33.0758 135.007 55.8811C123.506 78.6864 125.124 103.246 138.621 110.737Z" fill="#C2BDFC"/>
<path d="M159.081 116.015C172.578 123.505 190.472 115.793 199.047 98.7883C207.623 81.7837 203.633 61.9261 190.136 54.4352C176.639 46.9443 158.745 54.6567 150.169 71.6614C141.593 88.666 145.583 108.524 159.081 116.015Z" fill="#C2BDFC"/>
<path d="M103.997 113.065C117.494 120.556 135.388 112.843 143.963 95.8386C152.539 78.8339 148.549 58.9764 135.052 51.4855C121.555 43.9946 103.661 51.707 95.0851 68.7117C86.5095 85.7163 90.4992 105.574 103.997 113.065Z" fill="#C2BDFC"/>
<path d="M149.543 138.343C163.041 145.834 180.934 138.122 189.51 121.117C198.086 104.112 194.096 84.2547 180.599 76.7638C167.101 69.2729 149.208 76.9853 140.632 93.99C132.056 110.995 136.046 130.852 149.543 138.343Z" fill="#C2BDFC"/>
<path d="M124.362 130.72C137.86 138.211 155.753 130.498 164.329 113.494C172.905 96.4891 168.915 76.6315 155.418 69.1406C141.92 61.6497 124.027 69.3621 115.451 86.3668C106.875 103.371 110.865 123.229 124.362 130.72Z" fill="#C2BDFC"/>
</g>
<g filter="url(#filter1_f_7207_72313)">
<path d="M151.983 43.9576C136.855 46.1353 127.302 68.6217 130.645 94.1823C133.989 119.743 148.963 138.699 164.091 136.521C179.219 134.343 188.772 111.857 185.429 86.2961C182.085 60.7355 167.111 41.7799 151.983 43.9576Z" fill="#C2BDFC"/>
<path d="M131.927 52.2659C116.799 54.4436 107.246 76.9299 110.589 102.491C113.933 128.051 128.907 147.007 144.035 144.829C159.163 142.651 168.716 120.165 165.373 94.6044C162.029 69.0438 147.055 50.0882 131.927 52.2659Z" fill="#C2BDFC"/>
<path d="M112.377 60.502C97.2494 62.6797 87.0067 79.8955 89.4998 98.9547C91.9929 118.014 106.278 131.699 121.406 129.521C136.534 127.344 146.776 110.128 144.283 91.0685C141.79 72.0094 127.505 58.3243 112.377 60.502Z" fill="#C2BDFC"/>
<path d="M158.755 29.182C143.627 31.3597 133.384 48.5756 135.877 67.6347C138.37 86.6939 152.655 100.379 167.783 98.2013C182.911 96.0236 193.154 78.8077 190.661 59.7486C188.168 40.6894 173.883 27.0043 158.755 29.182Z" fill="#C2BDFC"/>
<path d="M107.704 36.5294C92.5761 38.7072 82.3334 55.923 84.8265 74.9822C87.3195 94.0413 101.604 107.726 116.732 105.549C131.86 103.371 142.103 86.1551 139.61 67.096C137.117 48.0368 122.832 34.3517 107.704 36.5294Z" fill="#C2BDFC"/>
<path d="M132.394 27.3075C117.266 29.4852 107.023 46.701 109.516 65.7602C112.009 84.8193 126.294 98.5044 141.422 96.3267C156.55 94.149 166.792 76.9331 164.299 57.874C161.806 38.8149 147.522 25.1298 132.394 27.3075Z" fill="#C2BDFC"/>
</g>
<path d="M142.796 136.806C170.473 136.806 192.909 113.272 192.909 84.2422C192.909 55.2122 170.473 31.6787 142.796 31.6787C115.118 31.6787 92.6816 55.2122 92.6816 84.2422C92.6816 113.272 115.118 136.806 142.796 136.806Z" fill="url(#paint0_radial_7207_72313)"/>
<path d="M160.433 62.7871H127.125C116.863 62.7871 108.543 71.513 108.543 82.2769C108.543 93.0408 116.863 101.767 127.125 101.767H160.433C170.696 101.767 179.016 93.0408 179.016 82.2769C179.016 71.513 170.696 62.7871 160.433 62.7871Z" fill="#4944A3"/>
<g filter="url(#filter2_d_7207_72313)">
<path d="M132.819 74.4639H128.324C126.621 74.4639 125.24 75.9122 125.24 77.6987V87.4356C125.24 89.2221 126.621 90.6704 128.324 90.6704H132.819C134.523 90.6704 135.903 89.2221 135.903 87.4356V77.6987C135.903 75.9122 134.523 74.4639 132.819 74.4639Z" fill="white"/>
</g>
<g filter="url(#filter3_d_7207_72313)">
<path d="M160.505 74.4639H156.01C154.307 74.4639 152.926 75.9122 152.926 77.6987V87.4356C152.926 89.2221 154.307 90.6704 156.01 90.6704H160.505C162.208 90.6704 163.589 89.2221 163.589 87.4356V77.6987C163.589 75.9122 162.208 74.4639 160.505 74.4639Z" fill="white"/>
</g>
<path d="M267.858 72H227.142C222.641 72 219 75.6885 219 80.2346V89.1587C219 93.7048 222.647 97.3932 227.142 97.3932H229.586C230.163 99.557 230.279 102.455 228.19 105C228.19 105 236.625 103.122 238.527 97.3932H267.858C272.353 97.3932 276 93.7048 276 89.1587V80.2346C276 75.6885 272.353 72 267.858 72Z" fill="#938FF1"/>
<path d="M231.512 86.22C231.179 86.22 230.925 86.1333 230.752 85.96C230.579 85.7733 230.492 85.5133 230.492 85.18C230.492 84.8467 230.579 84.5933 230.752 84.42C230.925 84.2467 231.179 84.16 231.512 84.16C231.845 84.16 232.099 84.2467 232.272 84.42C232.445 84.5933 232.532 84.8467 232.532 85.18C232.532 85.5133 232.445 85.7733 232.272 85.96C232.099 86.1333 231.845 86.22 231.512 86.22ZM236.219 86.22C235.886 86.22 235.632 86.1333 235.459 85.96C235.286 85.7733 235.199 85.5133 235.199 85.18C235.199 84.8467 235.286 84.5933 235.459 84.42C235.632 84.2467 235.886 84.16 236.219 84.16C236.552 84.16 236.806 84.2467 236.979 84.42C237.152 84.5933 237.239 84.8467 237.239 85.18C237.239 85.5133 237.152 85.7733 236.979 85.96C236.806 86.1333 236.552 86.22 236.219 86.22ZM240.926 86.22C240.593 86.22 240.339 86.1333 240.166 85.96C239.993 85.7733 239.906 85.5133 239.906 85.18C239.906 84.8467 239.993 84.5933 240.166 84.42C240.339 84.2467 240.593 84.16 240.926 84.16C241.259 84.16 241.513 84.2467 241.686 84.42C241.859 84.5933 241.946 84.8467 241.946 85.18C241.946 85.5133 241.859 85.7733 241.686 85.96C241.513 86.1333 241.259 86.22 240.926 86.22ZM245.633 86.22C245.3 86.22 245.046 86.1333 244.873 85.96C244.7 85.7733 244.613 85.5133 244.613 85.18C244.613 84.8467 244.7 84.5933 244.873 84.42C245.046 84.2467 245.3 84.16 245.633 84.16C245.966 84.16 246.22 84.2467 246.393 84.42C246.566 84.5933 246.653 84.8467 246.653 85.18C246.653 85.5133 246.566 85.7733 246.393 85.96C246.22 86.1333 245.966 86.22 245.633 86.22ZM250.34 86.22C250.007 86.22 249.753 86.1333 249.58 85.96C249.407 85.7733 249.32 85.5133 249.32 85.18C249.32 84.8467 249.407 84.5933 249.58 84.42C249.753 84.2467 250.007 84.16 250.34 84.16C250.673 84.16 250.927 84.2467 251.1 84.42C251.273 84.5933 251.36 84.8467 251.36 85.18C251.36 85.5133 251.273 85.7733 251.1 85.96C250.927 86.1333 250.673 86.22 250.34 86.22ZM255.047 86.22C254.714 86.22 254.46 86.1333 254.287 85.96C254.114 85.7733 254.027 85.5133 254.027 85.18C254.027 84.8467 254.114 84.5933 254.287 84.42C254.46 84.2467 254.714 84.16 255.047 84.16C255.38 84.16 255.634 84.2467 255.807 84.42C255.98 84.5933 256.067 84.8467 256.067 85.18C256.067 85.5133 255.98 85.7733 255.807 85.96C255.634 86.1333 255.38 86.22 255.047 86.22ZM259.754 86.22C259.421 86.22 259.167 86.1333 258.994 85.96C258.821 85.7733 258.734 85.5133 258.734 85.18C258.734 84.8467 258.821 84.5933 258.994 84.42C259.167 84.2467 259.421 84.16 259.754 84.16C260.087 84.16 260.341 84.2467 260.514 84.42C260.687 84.5933 260.774 84.8467 260.774 85.18C260.774 85.5133 260.687 85.7733 260.514 85.96C260.341 86.1333 260.087 86.22 259.754 86.22ZM264.461 86.22C264.128 86.22 263.874 86.1333 263.701 85.96C263.528 85.7733 263.441 85.5133 263.441 85.18C263.441 84.8467 263.528 84.5933 263.701 84.42C263.874 84.2467 264.128 84.16 264.461 84.16C264.794 84.16 265.048 84.2467 265.221 84.42C265.394 84.5933 265.481 84.8467 265.481 85.18C265.481 85.5133 265.394 85.7733 265.221 85.96C265.048 86.1333 264.794 86.22 264.461 86.22Z" fill="white"/>
<path d="M10.7132 26H64.2868C70.2086 26 75 30.8532 75 36.835V48.5772C75 54.5589 70.2013 59.4122 64.2868 59.4122H61.0706C60.3121 62.2592 60.159 66.0725 62.9084 69.4211C62.9084 69.4211 51.8086 66.9502 49.3072 59.4122H10.7132C4.79871 59.4122 0 54.5589 0 48.5772V36.835C0 30.8532 4.79871 26 10.7132 26Z" fill="#746ED3"/>
<path d="M24.7963 37.4153H26.77V48.2627H24.7963V43.6364H19.3805V48.2627H17.4068V37.4153H19.3805V41.8364H24.7963V37.4153ZM32.7597 46.7469C33.5176 46.7469 34.4176 46.3995 34.8755 45.9259L36.0913 47.189C35.3808 47.9469 33.9597 48.4522 32.7755 48.4522C30.4387 48.4522 28.5124 46.668 28.5124 44.1574C28.5124 41.7101 30.344 39.9101 32.665 39.9101C35.1913 39.9101 36.6597 41.8206 36.6597 44.8364H30.5019C30.7387 45.9574 31.5913 46.7469 32.7597 46.7469ZM32.744 41.6153C31.6703 41.6153 30.8019 42.2943 30.5176 43.368H34.8124C34.5913 42.3416 33.8966 41.6153 32.744 41.6153ZM38.3295 48.2627V37.2259H40.2558V48.2627H38.3295ZM42.3848 48.2627V37.2259H44.3111V48.2627H42.3848ZM50.3875 48.4522C48.019 48.4522 46.0138 46.4943 46.0138 44.1732C46.0138 41.8522 48.019 39.9101 50.3875 39.9101C52.7559 39.9101 54.7611 41.8522 54.7611 44.1732C54.7611 46.4943 52.7559 48.4522 50.3875 48.4522ZM50.3875 46.8101C51.7296 46.8101 52.8664 45.6101 52.8664 44.1732C52.8664 42.7522 51.7296 41.5522 50.3875 41.5522C49.0296 41.5522 47.8927 42.7522 47.8927 44.1732C47.8927 45.6101 49.0296 46.8101 50.3875 46.8101ZM57.0792 44.7101L56.6213 37.4153H58.8634L58.4056 44.7101H57.0792ZM57.7424 48.4522C57.0161 48.4522 56.4792 47.8837 56.4792 47.189C56.4792 46.5416 57.0161 45.9732 57.7424 45.9732C58.4056 45.9732 58.9582 46.5416 58.9582 47.189C58.9582 47.8837 58.4056 48.4522 57.7424 48.4522Z" fill="white"/>
<defs>
<filter id="filter0_f_7207_72313" x="80.128" y="10.0041" width="133.876" height="141.64" filterUnits="userSpaceOnUse" color-interpolation-filters="sRGB">
<feFlood flood-opacity="0" result="BackgroundImageFix"/>
<feBlend mode="normal" in="SourceGraphic" in2="BackgroundImageFix" result="shape"/>
<feGaussianBlur stdDeviation="5.21893" result="effect1_foregroundBlur_7207_72313"/>
</filter>
<filter id="filter1_f_7207_72313" x="78.5928" y="21.2199" width="118.302" height="129.639" filterUnits="userSpaceOnUse" color-interpolation-filters="sRGB">
<feFlood flood-opacity="0" result="BackgroundImageFix"/>
<feBlend mode="normal" in="SourceGraphic" in2="BackgroundImageFix" result="shape"/>
<feGaussianBlur stdDeviation="2.92993" result="effect1_foregroundBlur_7207_72313"/>
</filter>
<filter id="filter2_d_7207_72313" x="123.007" y="72.2304" width="15.13" height="20.6734" filterUnits="userSpaceOnUse" color-interpolation-filters="sRGB">
<feFlood flood-opacity="0" result="BackgroundImageFix"/>
<feColorMatrix in="SourceAlpha" type="matrix" values="0 0 0 0 0 0 0 0 0 0 0 0 0 0 0 0 0 0 127 0" result="hardAlpha"/>
<feOffset/>
<feGaussianBlur stdDeviation="1.11672"/>
<feColorMatrix type="matrix" values="0 0 0 0 1 0 0 0 0 1 0 0 0 0 1 0 0 0 1 0"/>
<feBlend mode="normal" in2="BackgroundImageFix" result="effect1_dropShadow_7207_72313"/>
<feBlend mode="normal" in="SourceGraphic" in2="effect1_dropShadow_7207_72313" result="shape"/>
</filter>
<filter id="filter3_d_7207_72313" x="150.692" y="72.2304" width="15.13" height="20.6734" filterUnits="userSpaceOnUse" color-interpolation-filters="sRGB">
<feFlood flood-opacity="0" result="BackgroundImageFix"/>
<feColorMatrix in="SourceAlpha" type="matrix" values="0 0 0 0 0 0 0 0 0 0 0 0 0 0 0 0 0 0 127 0" result="hardAlpha"/>
<feOffset/>
<feGaussianBlur stdDeviation="1.11672"/>
<feColorMatrix type="matrix" values="0 0 0 0 1 0 0 0 0 1 0 0 0 0 1 0 0 0 1 0"/>
<feBlend mode="normal" in2="BackgroundImageFix" result="effect1_dropShadow_7207_72313"/>
<feBlend mode="normal" in="SourceGraphic" in2="effect1_dropShadow_7207_72313" result="shape"/>
</filter>
<radialGradient id="paint0_radial_7207_72313" cx="0" cy="0" r="1" gradientUnits="userSpaceOnUse" gradientTransform="translate(142.896 83.9312) scale(49.9646 52.4069)">
<stop offset="0.21" stop-color="#C2BDFC"/>
<stop offset="0.96" stop-color="#8C88EE"/>
<stop offset="1" stop-color="#A4A2F8"/>
</radialGradient>
</defs>
</svg>
