<svg width="21" height="20" viewBox="0 0 21 20" fill="none" xmlns="http://www.w3.org/2000/svg">
<g id="check-circle-1">
<path id="Shape" d="M10.332 0C4.80918 0 0.332031 4.47715 0.332031 10C0.332031 15.5228 4.80918 20 10.332 20C15.8549 20 20.332 15.5228 20.332 10C20.3256 4.47982 15.8522 0.00642897 10.332 0Z" fill="#EDEDFC"/>
<path id="Path" d="M16.1023 6.83313L10.3981 14.574C10.262 14.7545 10.0592 14.8727 9.83511 14.9022C9.61102 14.9316 9.38449 14.8698 9.20642 14.7306L5.13309 11.474C4.77364 11.1863 4.71544 10.6617 5.00309 10.3023C5.29074 9.94285 5.81531 9.88465 6.17475 10.1723L9.57142 12.8898L14.7606 5.8473C14.9307 5.59195 15.2275 5.45078 15.5329 5.47983C15.8384 5.50887 16.1032 5.70344 16.2222 5.98627C16.3412 6.26911 16.2951 6.59445 16.1023 6.83313Z" fill="#7875EA"/>
</g>
</svg>