<svg width="183" height="59" viewBox="0 0 183 59" fill="none" xmlns="http://www.w3.org/2000/svg">
<rect width="182.385" height="59" rx="6" fill="#1C1B1E"/>
<path d="M20 41.3092V17.6918C20.0002 17.6405 20.0157 17.5905 20.0446 17.5479C20.0735 17.5053 20.1146 17.4721 20.1626 17.4523C20.2106 17.4326 20.2635 17.4273 20.3146 17.4371C20.3657 17.4469 20.4127 17.4713 20.4497 17.5073L32.9365 29.4999L20.4497 41.4937C20.4127 41.5297 20.3657 41.5541 20.3146 41.5639C20.2635 41.5736 20.2106 41.5683 20.1626 41.5486C20.1146 41.5289 20.0735 41.4957 20.0446 41.4531C20.0157 41.4105 20.0002 41.3605 20 41.3092ZM38.1721 34.4277L22.5153 42.9228L22.5055 42.9282C22.2358 43.0724 21.9795 42.7131 22.2004 42.5039L34.4736 30.9464L38.1721 34.4277ZM22.2016 16.4959C21.9795 16.2867 22.2358 15.9274 22.5067 16.0716L22.5165 16.077L38.1721 24.5721L34.4736 28.0546L22.2016 16.4959ZM44.4926 31.0023L40.1205 33.3736L36.0095 29.4999L40.1205 25.6279L44.4926 27.9975C45.6819 28.6447 45.6819 30.355 44.4926 31.0023Z" fill="white"/>
<path d="M64.9926 22.132C62.6166 22.132 61.2486 20.584 61.2486 17.86C61.2486 15.112 62.6166 13.588 65.0046 13.588C66.0246 13.588 66.9006 13.876 67.4766 14.32L67.1166 15.088C66.4926 14.728 65.7966 14.524 65.0406 14.524C63.3006 14.524 62.3406 15.724 62.3406 17.884C62.3406 20.008 63.2886 21.196 65.0766 21.196C65.7966 21.196 66.5646 20.968 67.0806 20.62V17.524H68.0886V21.136C67.2006 21.772 66.1806 22.132 64.9926 22.132ZM72.2482 22.132C70.6042 22.132 69.6562 21.064 69.6562 19.168C69.6562 17.248 70.6282 16.18 72.2122 16.18C73.7602 16.18 74.4802 17.14 74.4802 18.856C74.4802 18.952 74.4682 19.12 74.4682 19.24H70.6042C70.6042 20.632 71.2522 21.328 72.3682 21.328C73.1002 21.328 73.7482 21.04 74.2162 20.56L74.3362 21.364C73.8442 21.856 73.1242 22.132 72.2482 22.132ZM70.6282 18.592H73.5202C73.5202 17.572 73.0762 16.984 72.2002 16.984C71.2042 16.984 70.7242 17.656 70.6282 18.592ZM78.3565 21.172L78.6085 21.808C78.2965 21.964 77.9845 22.048 77.6605 22.048C76.7605 22.048 76.2565 21.532 76.2565 20.62V17.104H75.3685L75.5965 16.312H76.2565V14.26H77.1685V16.312H78.3205V17.104H77.1685V20.596C77.1685 21.016 77.3845 21.256 77.7685 21.256C77.9605 21.256 78.1645 21.244 78.3565 21.172ZM83.0481 15.58C82.6521 15.58 82.4241 15.376 82.4241 14.98C82.4241 14.584 82.6521 14.38 83.0481 14.38C83.4441 14.38 83.6601 14.584 83.6601 14.98C83.6601 15.376 83.4441 15.58 83.0481 15.58ZM82.5681 22V16.312H83.4801V22H82.5681ZM87.7784 21.172L88.0304 21.808C87.7184 21.964 87.4064 22.048 87.0824 22.048C86.1824 22.048 85.6784 21.532 85.6784 20.62V17.104H84.7904L85.0184 16.312H85.6784V14.26H86.5904V16.312H87.7424V17.104H86.5904V20.596C86.5904 21.016 86.8064 21.256 87.1904 21.256C87.3824 21.256 87.5864 21.244 87.7784 21.172ZM94.198 22.132C92.53 22.132 91.582 21.064 91.582 19.156C91.582 17.248 92.53 16.18 94.198 16.18C95.878 16.18 96.826 17.248 96.826 19.156C96.826 21.064 95.878 22.132 94.198 22.132ZM94.21 21.328C95.29 21.328 95.89 20.56 95.89 19.156C95.89 17.752 95.29 16.984 94.21 16.984C93.118 16.984 92.518 17.752 92.518 19.156C92.518 20.56 93.118 21.328 94.21 21.328ZM101.28 16.18C102.288 16.18 102.924 16.792 102.924 17.776V22H102.012V18.028C102.012 17.404 101.58 17.008 100.956 17.008C100.404 17.008 99.8039 17.344 99.3239 17.872V22H98.4119V16.312H99.1439L99.2399 17.14C99.7799 16.552 100.5 16.18 101.28 16.18Z" fill="white"/>
<path d="M68.1046 45.24C64.0246 45.24 61.7046 42.66 61.7046 38.12C61.7046 33.52 64.0446 30.96 68.1246 30.96C69.7846 30.96 71.2446 31.42 72.1846 32.12L71.5046 33.86C70.4846 33.3 69.4246 33 68.2046 33C65.5446 33 64.0846 34.8 64.0846 38.14C64.0846 41.42 65.5246 43.2 68.2646 43.2C69.3246 43.2 70.4646 42.9 71.2046 42.42V37.54H73.3846V43.54C71.9246 44.62 70.1446 45.24 68.1046 45.24ZM80.2373 45.24C77.3773 45.24 75.7573 43.44 75.7573 40.24C75.7573 37.04 77.3773 35.24 80.2373 35.24C83.1173 35.24 84.7373 37.04 84.7373 40.24C84.7373 43.44 83.1173 45.24 80.2373 45.24ZM80.2573 43.56C81.8773 43.56 82.7573 42.4 82.7573 40.24C82.7573 38.08 81.8773 36.9 80.2573 36.9C78.6173 36.9 77.7373 38.08 77.7373 40.24C77.7373 42.4 78.6173 43.56 80.2573 43.56ZM90.999 45.24C88.139 45.24 86.519 43.44 86.519 40.24C86.519 37.04 88.139 35.24 90.999 35.24C93.879 35.24 95.499 37.04 95.499 40.24C95.499 43.44 93.879 45.24 90.999 45.24ZM91.019 43.56C92.639 43.56 93.519 42.4 93.519 40.24C93.519 38.08 92.639 36.9 91.019 36.9C89.379 36.9 88.499 38.08 88.499 40.24C88.499 42.4 89.379 43.56 91.019 43.56ZM101.803 43.02C103.923 43.18 105.843 43.84 105.843 45.92C105.843 47.96 104.203 49 101.063 49C98.1826 49 96.5826 48.08 96.5826 46.34C96.5826 44.9 97.5626 44.18 98.7426 43.8C98.2426 43.62 97.9826 43.22 97.9826 42.68C97.9826 42.1 98.4026 41.64 99.0826 41.42C97.9826 40.88 97.3826 39.9 97.3826 38.54C97.3826 36.46 98.8026 35.24 101.203 35.24C102.363 35.24 103.283 35.52 103.923 36.02L105.543 35.22L105.923 36.62L104.683 36.98C104.903 37.42 105.023 37.94 105.023 38.54C105.023 40.62 103.623 41.84 101.203 41.84C101.023 41.84 100.843 41.84 100.683 41.82L100.643 41.84C100.023 41.84 99.7026 42.04 99.7026 42.36C99.7026 42.74 100.243 42.9 101.803 43.02ZM101.223 36.54C99.9226 36.54 99.2426 37.28 99.2426 38.52C99.2426 39.76 99.9826 40.5 101.223 40.5C102.463 40.5 103.203 39.76 103.203 38.52C103.203 37.28 102.523 36.54 101.223 36.54ZM101.343 47.5C102.963 47.5 103.923 47 103.923 46.12C103.923 45 102.423 44.9 100.183 44.46C98.9426 44.58 98.2626 45.16 98.2626 45.92C98.2626 46.94 99.4426 47.5 101.343 47.5ZM107.509 45V30.4H109.469V45H107.509ZM116.291 45.24C113.471 45.24 111.851 43.44 111.851 40.24C111.851 37.04 113.491 35.24 116.251 35.24C118.891 35.24 120.171 36.86 120.171 39.76C120.171 39.94 120.171 40.3 120.131 40.56H113.871C113.871 42.56 114.891 43.56 116.631 43.56C117.831 43.56 118.911 43.14 119.711 42.44L119.931 44.04C119.071 44.82 117.791 45.24 116.291 45.24ZM113.891 39.32H118.151C118.151 37.78 117.471 36.9 116.191 36.9C114.731 36.9 114.011 37.9 113.891 39.32ZM127.681 45V31.2H132.261C135.321 31.2 137.121 32.86 137.121 35.64C137.121 38.46 135.321 40.1 132.261 40.1H130.001V45H127.681ZM130.001 38.16H132.221C133.781 38.16 134.721 37.22 134.721 35.64C134.721 34.08 133.781 33.14 132.221 33.14H130.001V38.16ZM139.404 45V30.4H141.364V45H139.404ZM147.987 35.24C150.107 35.24 151.367 36.4 151.367 38.32V45H149.727L149.547 43.84C148.707 44.7 147.507 45.24 146.347 45.24C144.687 45.24 143.647 44.16 143.647 42.56C143.647 40.26 145.727 39 149.407 39V38.16C149.407 37.32 148.847 36.82 147.647 36.82C146.627 36.82 145.547 37.14 144.527 37.64L144.087 36.26C145.267 35.6 146.787 35.24 147.987 35.24ZM145.667 42.28C145.667 43.12 146.187 43.72 147.127 43.72C147.867 43.72 148.747 43.34 149.407 42.68V40.2C147.007 40.2 145.667 40.94 145.667 42.28ZM159.992 35.48H162.012L158.412 45.38C157.652 47.58 156.752 49 154.872 49C154.552 49 154.232 48.96 153.912 48.9L153.652 47.24C153.872 47.3 154.112 47.32 154.332 47.32C155.172 47.32 155.892 47.06 156.452 45.26L152.892 35.48H155.072L157.572 42.86L159.992 35.48Z" fill="white"/>
</svg>
