<svg width="253" height="149" viewBox="0 0 253 149" fill="none" xmlns="http://www.w3.org/2000/svg">
<g clip-path="url(#clip0_8101_47060)">
<path d="M-0.0078125 139.937L-0.0078125 142.654H25.0986V139.937H-0.0078125Z" fill="#2B2A44"/>
<path d="M0.253446 133.115L0.109375 135.827L25.1805 137.159L25.3246 134.446L0.253446 133.115Z" fill="#2B2A44"/>
<path d="M0.846331 126.403L0.558594 129.105L25.5238 131.764L25.8116 129.063L0.846331 126.403Z" fill="#2B2A44"/>
<path d="M1.80513 119.767L1.375 122.449L26.1648 126.425L26.5949 123.742L1.80513 119.767Z" fill="#2B2A44"/>
<path d="M3.10991 113.285L2.53906 115.941L27.085 121.216L27.6558 118.56L3.10991 113.285Z" fill="#2B2A44"/>
<path d="M4.7286 106.882L4.01953 109.504L28.2557 116.057L28.9648 113.435L4.7286 106.882Z" fill="#2B2A44"/>
<path d="M6.65694 100.624L5.8125 103.206L29.6752 111.01L30.5196 108.428L6.65694 100.624Z" fill="#2B2A44"/>
<path d="M8.91069 94.5337L7.93359 97.0686L31.3599 106.099L32.337 103.564L8.91069 94.5337Z" fill="#2B2A44"/>
<path d="M11.4578 88.5766L10.3516 91.0578L33.2821 101.282L34.3883 98.8003L11.4578 88.5766Z" fill="#2B2A44"/>
<path d="M14.298 82.7839L13.0664 85.2053L35.4444 96.5877L36.676 94.1663L14.298 82.7839Z" fill="#2B2A44"/>
<path d="M17.4081 77.1701L16.0547 79.5256L37.8237 92.0332L39.1771 89.6777L17.4081 77.1701Z" fill="#2B2A44"/>
<path d="M20.8029 71.7367L19.332 74.0207L40.4404 87.6137L41.9112 85.3297L20.8029 71.7367Z" fill="#2B2A44"/>
<path d="M24.4435 66.4983L22.8594 68.7053L43.2556 83.3452L44.8397 81.1383L24.4435 66.4983Z" fill="#2B2A44"/>
<path d="M28.3489 61.4447L26.6562 63.5695L46.2938 79.2124L47.9865 77.0875L28.3489 61.4447Z" fill="#2B2A44"/>
<path d="M32.5004 56.6154L30.7031 58.6525L49.53 75.2623L51.3272 73.2252L32.5004 56.6154Z" fill="#2B2A44"/>
<path d="M36.8771 51.984L34.9805 53.9289L52.9551 71.4574L54.8517 69.5124L36.8771 51.984Z" fill="#2B2A44"/>
<path d="M41.4878 47.5941L39.4961 49.4416L56.5705 67.8481L58.5622 66.0005L41.4878 47.5941Z" fill="#2B2A44"/>
<path d="M46.316 43.4403L44.2344 45.1857L60.3658 64.424L62.4474 62.6785L46.316 43.4403Z" fill="#2B2A44"/>
<path d="M51.3461 39.5018L49.1797 41.1408L64.3276 61.1627L66.494 59.5236L51.3461 39.5018Z" fill="#2B2A44"/>
<path d="M56.5745 35.8435L54.3281 37.3713L68.4473 58.1314L70.6936 56.6037L56.5745 35.8435Z" fill="#2B2A44"/>
<path d="M61.9768 32.4451L59.6562 33.8576L72.7108 55.3032L75.0313 53.8907L61.9768 32.4451Z" fill="#2B2A44"/>
<path d="M67.5689 29.2981L65.1797 30.591L77.1286 52.6717L79.5179 51.3788L67.5689 29.2981Z" fill="#2B2A44"/>
<path d="M73.3504 26.441L70.8984 27.6105L81.707 50.2713L84.159 49.1017L73.3504 26.441Z" fill="#2B2A44"/>
<path d="M79.2861 23.8916L76.7773 24.9338L86.4094 48.119L88.9182 47.0768L79.2861 23.8916Z" fill="#2B2A44"/>
<path d="M85.3522 21.6202L82.793 22.5314L91.215 46.1832L93.7742 45.2719L85.3522 21.6202Z" fill="#2B2A44"/>
<path d="M91.5758 19.6656L88.9727 20.4426L96.1537 44.5001L98.7568 43.7231L91.5758 19.6656Z" fill="#2B2A44"/>
<path d="M97.9292 18.0113L95.2891 18.6514L101.205 43.0508L103.846 42.4107L97.9292 18.0113Z" fill="#2B2A44"/>
<path d="M104.401 16.6988L101.73 17.1994L106.357 41.8758L109.028 41.3752L104.401 16.6988Z" fill="#2B2A44"/>
<path d="M111.009 15.7073L108.316 16.0666L111.637 40.9525L114.33 40.5932L111.009 15.7073Z" fill="#2B2A44"/>
<path d="M117.681 15.063L114.973 15.2795L116.973 40.3061L119.681 40.0897L117.681 15.063Z" fill="#2B2A44"/>
<path d="M124.454 14.7768L121.738 14.8488L122.404 39.9464L125.12 39.8744L124.454 14.7768Z" fill="#2B2A44"/>
<path d="M128.584 14.7717L127.918 39.8693L130.634 39.9414L131.3 14.8438L128.584 14.7717Z" fill="#2B2A44"/>
<path d="M135.387 15.0624L133.387 40.0891L136.095 40.3055L138.095 15.2789L135.387 15.0624Z" fill="#2B2A44"/>
<path d="M142.055 15.7002L138.734 40.5861L141.427 40.9454L144.748 16.0595L142.055 15.7002Z" fill="#2B2A44"/>
<path d="M148.639 16.6812L144.012 41.3576L146.682 41.8583L151.309 17.1819L148.639 16.6812Z" fill="#2B2A44"/>
<path d="M155.116 18.0139L149.199 42.4133L151.839 43.0535L157.756 18.6541L155.116 18.0139Z" fill="#2B2A44"/>
<path d="M161.458 19.6292L154.277 43.6867L156.88 44.4637L164.061 20.4062L161.458 19.6292Z" fill="#2B2A44"/>
<path d="M167.707 21.5946L159.285 45.2463L161.844 46.1576L170.266 22.5059L167.707 21.5946Z" fill="#2B2A44"/>
<path d="M173.777 23.8706L164.145 47.0559L166.653 48.0981L176.285 24.9128L173.777 23.8706Z" fill="#2B2A44"/>
<path d="M179.723 26.4489L168.914 49.1096L171.366 50.2791L182.175 27.6184L179.723 26.4489Z" fill="#DDCAF0"/>
<path d="M185.472 29.2867L173.523 51.3674L175.913 52.6603L187.862 30.5796L185.472 29.2867Z" fill="#DDCAF0"/>
<path d="M191.074 32.4316L178.02 53.8772L180.34 55.2897L193.395 33.8441L191.074 32.4316Z" fill="#DDCAF0"/>
<path d="M196.494 35.8377L182.375 56.5979L184.621 58.1256L198.741 37.3655L196.494 35.8377Z" fill="#DDCAF0"/>
<path d="M201.734 39.5184L186.586 59.5402L188.752 61.1793L203.9 41.1574L201.734 39.5184Z" fill="#DDCAF0"/>
<path d="M206.741 43.4133L190.609 62.6516L192.691 64.3971L208.822 45.1588L206.741 43.4133Z" fill="#DDCAF0"/>
<path d="M211.567 47.5887L194.492 65.9951L196.484 67.8426L213.558 49.4362L211.567 47.5887Z" fill="#DDCAF0"/>
<path d="M216.174 51.9932L198.199 69.5217L200.096 71.4666L218.071 53.9382L216.174 51.9932Z" fill="#DDCAF0"/>
<path d="M220.553 56.5906L201.727 73.2004L203.524 75.2375L222.351 58.6278L220.553 56.5906Z" fill="#DDCAF0"/>
<path d="M224.708 61.4726L205.07 77.1154L206.763 79.2403L226.401 63.5975L224.708 61.4726Z" fill="#DDCAF0"/>
<path d="M228.603 66.4745L208.207 81.1145L209.791 83.3214L230.187 68.6814L228.603 66.4745Z" fill="#DDCAF0"/>
<path d="M232.245 71.7363L211.137 85.3293L212.608 87.6133L233.716 74.0203L232.245 71.7363Z" fill="#DDCAF0"/>
<path d="M235.636 77.1644L213.867 89.6721L215.221 92.0276L236.99 79.5199L235.636 77.1644Z" fill="#DDCAF0"/>
<path d="M238.757 82.8052L216.379 94.1877L217.611 96.6091L239.988 85.2266L238.757 82.8052Z" fill="#DDCAF0"/>
<path d="M241.602 88.585L218.672 98.8087L219.778 101.29L242.709 91.0662L241.602 88.585Z" fill="#DDCAF0"/>
<path d="M244.145 94.5483L220.719 103.578L221.696 106.113L245.122 97.0831L244.145 94.5483Z" fill="#DDCAF0"/>
<path d="M246.39 100.651L222.527 108.455L223.372 111.037L247.234 103.233L246.39 100.651Z" fill="#DDCAF0"/>
<path d="M248.338 106.887L224.102 113.44L224.811 116.062L249.047 109.509L248.338 106.887Z" fill="#DDCAF0"/>
<path d="M249.948 113.275L225.402 118.551L225.973 121.207L250.519 115.931L249.948 113.275Z" fill="#DDCAF0"/>
<path d="M251.251 119.8L226.461 123.776L226.891 126.458L251.681 122.483L251.251 119.8Z" fill="#DDCAF0"/>
<path d="M252.196 126.424L227.23 129.083L227.518 131.785L252.483 129.125L252.196 126.424Z" fill="#DDCAF0"/>
<path d="M252.809 133.142L227.738 134.474L227.882 137.187L252.953 135.855L252.809 133.142Z" fill="#DDCAF0"/>
<path d="M253.055 142.653V139.937H227.948V142.653H253.055Z" fill="#DDCAF0"/>
<path d="M-0.0078125 142.653H25.0986V139.936H-0.0078125V142.653ZM0.0966733 135.831L25.1583 137.16L25.3076 134.443L0.245939 133.114L0.0966733 135.831ZM0.559396 129.099L25.5166 131.756L25.8002 129.054L0.843 126.398L0.559396 129.099ZM1.36543 122.457L26.1435 126.427L26.5764 123.741L1.7983 119.77L1.36543 122.457ZM2.51477 115.919L27.054 121.188L27.6212 118.531L3.08198 113.262L2.51477 115.919ZM3.9925 109.501L28.2183 116.053L28.9198 113.426L4.69405 106.874L3.9925 109.501ZM5.79861 103.217L29.6512 111.023L30.502 108.441L6.64943 100.634L5.79861 103.217ZM7.91818 97.0669L31.3379 106.097L32.3082 103.56L8.88841 94.5294L7.91818 97.0669ZM10.3363 91.0664L33.2635 101.291L34.368 98.8133L11.4408 88.5886L10.3363 91.0664ZM13.0529 85.2152L35.4278 96.5892L36.6518 94.1711L14.2769 82.7971L13.0529 85.2152ZM16.0531 79.5282L37.816 92.0366L39.1744 89.6782L17.4115 77.1698L16.0531 79.5282ZM19.3221 74.0203L40.4282 87.6034L41.891 85.3197L20.7849 71.7365L19.3221 74.0203ZM22.8596 68.6915L43.2493 83.3195L44.8315 81.1104L24.4419 66.4824L22.8596 68.6915ZM26.651 63.5568L46.2794 79.1998L47.9661 77.0802L28.3377 61.4372L26.651 63.5568ZM30.6961 58.631L49.5185 75.2293L51.3096 73.1993L32.4873 56.601L30.6961 58.631ZM34.98 53.9142L52.9516 71.438L54.8472 69.4976L36.8757 51.9738L34.98 53.9142ZM39.4878 49.4213L56.5638 67.8258L58.549 65.9749L41.473 47.5705L39.4878 49.4213ZM44.2195 45.1524L60.3402 64.3927L62.415 62.6463L46.2943 43.4059L44.2195 45.1524ZM49.1602 41.1222L64.2957 61.1387L66.4601 59.4968L51.3246 39.4803L49.1602 41.1222ZM54.3099 37.3458L68.4304 58.0937L70.6694 56.5712L56.5489 35.8233L54.3099 37.3458ZM59.6536 33.8231L72.6994 55.2576L75.013 53.8396L61.9672 32.4051L59.6536 33.8231ZM65.1764 30.5691L77.1176 52.6455L79.5059 51.3469L67.5646 29.2705L65.1764 30.5691ZM70.8783 27.5838L81.6852 50.2423L84.1331 49.078L73.3263 26.4195L70.8783 27.5838ZM76.7445 24.897L86.3721 48.078L88.8797 47.0331L79.2521 23.8522L76.7445 24.897ZM82.7748 22.4939L91.1934 46.1375L93.7458 45.227L85.3272 21.5833L82.7748 22.4939ZM88.9544 20.4041L96.134 44.4508L98.7313 43.6746L91.5516 19.628L88.9544 20.4041ZM95.2683 18.6279L101.179 43.0179L103.821 42.376L97.9103 17.986L95.2683 18.6279ZM101.717 17.1651L106.344 41.8387L109.016 41.3312L104.388 16.6576L101.717 17.1651ZM108.284 16.0456L111.598 40.9281L114.285 40.5699L110.971 15.6874L108.284 16.0456ZM114.956 15.2694L116.957 40.2863L119.658 40.0773L117.658 15.0604L114.956 15.2694ZM121.733 14.8365L122.405 39.9281L125.121 39.8534L124.45 14.7619L121.733 14.8365ZM127.913 39.8534L130.629 39.9281L131.301 14.8365L128.584 14.7619L127.913 39.8534ZM133.361 40.0773L136.063 40.2863L138.063 15.2694L135.361 15.0604L133.361 40.0773ZM142.048 15.7023L138.734 40.5848L141.421 40.9431L144.735 16.0605L142.048 15.7023ZM148.631 16.6874L144.003 41.361L146.675 41.8685L151.303 17.1949L148.631 16.6874ZM155.109 18.001L149.198 42.3909L151.84 43.0328L157.751 18.6428L155.109 18.001ZM161.468 19.6429L154.288 43.6896L156.885 44.4657L164.065 20.4191L161.468 19.6429ZM167.692 21.5983L159.273 45.2419L161.826 46.1524L170.244 22.5088L167.692 21.5983ZM173.767 23.8671L164.139 47.048L166.647 48.0929L176.275 24.912L173.767 23.8671Z" fill="url(#paint0_linear_8101_47060)"/>
<path d="M217 142C217 92.3006 176.7 52.0002 127 52.0002C77.3004 52.0002 37 92.3006 37 142" stroke="#736ED3" stroke-miterlimit="10"/>
<path d="M130.838 144.683C129.203 148.162 125.052 149.658 121.573 148.023C118.094 146.388 116.598 142.237 118.233 138.758C119.868 135.279 149.242 89.2285 149.242 89.2285C149.242 89.2285 132.473 141.216 130.838 144.695V144.683Z" fill="#9179D7"/>
<path d="M128.311 143.489C127.325 145.577 124.832 146.47 122.745 145.496C120.657 144.51 119.764 142.017 120.738 139.929C121.724 137.842 124.217 136.949 126.305 137.923C128.392 138.909 129.285 141.402 128.311 143.489Z" fill="#2B2A44"/>
<g filter="url(#filter0_d_8101_47060)">
<circle cx="159.5" cy="60.5" r="10.5" fill="#CEB3FE"/>
</g>
<path d="M169.613 62.8873C170.931 57.302 167.472 51.7056 161.887 50.3873C156.302 49.0691 150.705 52.5282 149.387 58.1135C148.069 63.6988 151.528 69.2953 157.113 70.6135C162.698 71.9318 168.295 68.4726 169.613 62.8873Z" stroke="#716CCE" stroke-width="0.751942" stroke-linecap="round" stroke-linejoin="round"/>
<path d="M153.901 58.0826C153.901 57.5766 154.311 57.1643 154.819 57.1643C155.327 57.1643 155.737 57.5748 155.737 58.0826C155.737 58.5904 155.327 59.0008 154.819 59.0008C154.311 59.0008 153.901 58.5904 153.901 58.0826Z" fill="#716CCE"/>
<path d="M163.265 58.0826C163.265 57.5766 163.676 57.1643 164.183 57.1643C164.691 57.1643 165.102 57.5748 165.102 58.0826C165.102 58.5904 164.691 59.0008 164.183 59.0008C163.676 59.0008 163.265 58.5904 163.265 58.0826Z" fill="#716CCE"/>
<path d="M165.087 62.2397C164.346 64.6212 162.125 66.3498 159.499 66.3498C156.874 66.3498 154.653 64.6212 153.912 62.2397" stroke="#716CCE" stroke-width="0.751942" stroke-linecap="round" stroke-linejoin="round"/>
<path d="M154.359 61.9856L153.293 62.4952" stroke="#716CCE" stroke-width="0.751942" stroke-linecap="round" stroke-linejoin="round"/>
<path d="M164.647 61.9856L165.712 62.4952" stroke="#716CCE" stroke-width="0.751942" stroke-linecap="round" stroke-linejoin="round"/>
</g>
<defs>
<filter id="filter0_d_8101_47060" x="146.12" y="47.43" width="26.76" height="26.76" filterUnits="userSpaceOnUse" color-interpolation-filters="sRGB">
<feFlood flood-opacity="0" result="BackgroundImageFix"/>
<feColorMatrix in="SourceAlpha" type="matrix" values="0 0 0 0 0 0 0 0 0 0 0 0 0 0 0 0 0 0 127 0" result="hardAlpha"/>
<feOffset dy="0.31"/>
<feGaussianBlur stdDeviation="1.44"/>
<feComposite in2="hardAlpha" operator="out"/>
<feColorMatrix type="matrix" values="0 0 0 0 0.172549 0 0 0 0 0.172549 0 0 0 0 0.172549 0 0 0 0.25 0"/>
<feBlend mode="normal" in2="BackgroundImageFix" result="effect1_dropShadow_8101_47060"/>
<feBlend mode="normal" in="SourceGraphic" in2="effect1_dropShadow_8101_47060" result="shape"/>
</filter>
<linearGradient id="paint0_linear_8101_47060" x1="-0.0078125" y1="78.7222" x2="176.29" y2="78.7222" gradientUnits="userSpaceOnUse">
<stop stop-color="#6C31FF"/>
<stop offset="1" stop-color="#CDAFFF"/>
</linearGradient>
<clipPath id="clip0_8101_47060">
<rect width="253" height="149" fill="white"/>
</clipPath>
</defs>
</svg>
