<svg xmlns="http://www.w3.org/2000/svg" xmlns:xlink="http://www.w3.org/1999/xlink" version="1.1" x="0px" y="0px" viewBox="0 0 100 125" style="enable-background:new 0 0 100 100;" xml:space="preserve"><path d="M24.869,15.8c0-0.759,0.616-1.375,1.375-1.375h20.483l-4.102-5.563c-0.451-0.611-0.321-1.472,0.291-1.923  c0.611-0.451,1.472-0.321,1.923,0.291l5.715,7.75c0.036,0.049,0.068,0.1,0.097,0.152c0.006,0.011,0.012,0.022,0.018,0.034  c0.023,0.044,0.043,0.089,0.061,0.134c0.003,0.009,0.007,0.017,0.011,0.026c0.019,0.052,0.035,0.106,0.048,0.16  c0.003,0.013,0.005,0.027,0.008,0.04c0.009,0.044,0.016,0.087,0.02,0.132c0.001,0.014,0.003,0.028,0.004,0.042  c0.004,0.056,0.005,0.111,0.003,0.167c0,0.006-0.001,0.013-0.002,0.019c-0.003,0.051-0.01,0.101-0.018,0.151  c-0.002,0.013-0.005,0.026-0.007,0.039c-0.011,0.054-0.025,0.108-0.043,0.162c0,0.001-0.001,0.003-0.001,0.004  c-0.019,0.055-0.042,0.109-0.068,0.162c-0.002,0.005-0.004,0.01-0.006,0.015c-0.004,0.008-0.009,0.015-0.013,0.023  c-0.021,0.039-0.044,0.078-0.069,0.116c-0.009,0.013-0.017,0.027-0.026,0.04c-0.004,0.006-0.008,0.012-0.012,0.018l-5.718,7.748  c-0.27,0.365-0.686,0.559-1.108,0.559c-0.283,0-0.57-0.087-0.815-0.269c-0.611-0.451-0.741-1.312-0.29-1.923l4.101-5.557H26.244  C25.485,17.175,24.869,16.56,24.869,15.8z M12.055,23.096c0.001,0.014,0.003,0.028,0.004,0.042c0.005,0.044,0.011,0.088,0.02,0.131  c0.003,0.013,0.005,0.027,0.008,0.04c0.013,0.054,0.028,0.108,0.047,0.16c0.003,0.009,0.007,0.018,0.011,0.026  c0.018,0.046,0.038,0.09,0.061,0.134c0.006,0.011,0.012,0.023,0.018,0.034c0.029,0.052,0.061,0.104,0.097,0.152l5.715,7.745  c0.27,0.365,0.686,0.559,1.108,0.559c0.283,0,0.57-0.087,0.815-0.269c0.611-0.451,0.741-1.312,0.29-1.923l-4.101-5.557h20.482  c0.759,0,1.375-0.616,1.375-1.375s-0.616-1.375-1.375-1.375H16.149l4.101-5.557c0.451-0.611,0.321-1.472-0.29-1.923  c-0.611-0.451-1.472-0.321-1.923,0.29l-5.718,7.748c-0.005,0.006-0.008,0.013-0.013,0.019c-0.009,0.012-0.016,0.025-0.025,0.037  c-0.026,0.039-0.05,0.079-0.071,0.119c-0.004,0.007-0.009,0.014-0.013,0.021c-0.002,0.005-0.004,0.009-0.006,0.014  c-0.026,0.053-0.05,0.108-0.069,0.163c0,0.001,0,0.001,0,0.002c-0.018,0.054-0.032,0.109-0.043,0.164  c-0.003,0.013-0.005,0.025-0.007,0.038c-0.009,0.051-0.015,0.102-0.019,0.153c0,0.006-0.001,0.012-0.002,0.018  C12.049,22.984,12.051,23.04,12.055,23.096z M99,21.747v49.652c0,3.757-3.058,6.815-6.815,6.815h-5.746h-1.344  c-0.76,0-1.374-0.616-1.374-1.376c0-0.094,0.01-0.187,0.028-0.277c0.128-0.626,0.681-1.098,1.346-1.098h1.976h5.115  c2.241,0,4.064-1.822,4.064-4.064V21.747c0-1.641-0.978-3.058-2.381-3.698l-1.389,3.432c-0.211,0.52-0.714,0.86-1.275,0.86H71.099  c-0.561,0-1.065-0.34-1.275-0.86l-1.385-3.43c-1.403,0.64-2.379,2.054-2.379,3.696v17.981c-0.915-0.033-1.832-0.022-2.749,0.035  V21.747c0-3.757,3.056-6.815,6.813-6.815h22.062C95.942,14.932,99,17.99,99,21.747z M91.05,17.683H71.256l0.771,1.907h18.248  L91.05,17.683z M84.089,75.386c-0.153,0.39-0.266,0.783-0.34,1.175c-0.073,0.378-0.108,0.758-0.108,1.134  c0,1.035,0.273,2.055,0.823,3.023l1.195,2.112c-0.791,1.086-1.665,2.11-2.606,3.05c-0.59,0.59-1.216,1.157-1.866,1.69l-1.706-0.966  c-1.803-1.019-3.828-1.096-5.715-0.211c-0.305,0.148-0.581,0.272-0.848,0.382c-1.799,0.744-3.076,2.188-3.599,4.072L68.7,93.07  c-2.06,0.295-4.146,0.338-6.223,0.128l-0.529-1.909c-0.547-1.988-1.919-3.471-3.869-4.182c-0.398-0.142-0.823-0.313-1.293-0.52  c-1.838-0.817-3.816-0.72-5.569,0.272l-1.852,1.045c-0.801-0.63-1.568-1.309-2.285-2.025c-0.712-0.712-1.391-1.478-2.029-2.285  l1.049-1.852c0.992-1.753,1.088-3.731,0.274-5.563c-0.209-0.476-0.38-0.901-0.523-1.307c-0.706-1.942-2.19-3.312-4.176-3.861  l-1.911-0.533c-0.087-0.864-0.13-1.73-0.13-2.588c0-0.852,0.043-1.72,0.13-2.586l1.907-0.529c1.99-0.549,3.473-1.921,4.182-3.869  c0.142-0.396,0.313-0.821,0.519-1.293c0.817-1.838,0.72-3.816-0.272-5.571l-1.049-1.85c0.628-0.797,1.307-1.563,2.029-2.285  c0.712-0.712,1.48-1.393,2.285-2.029l1.852,1.049c1.716,0.97,3.654,1.08,5.479,0.309c0.031-0.014,0.065-0.028,0.096-0.041  c0.01-0.004,0.02-0.008,0.03-0.014c0.398-0.177,0.811-0.342,1.265-0.506c1.942-0.706,3.314-2.19,3.861-4.176l0.529-1.911  c2.076-0.209,4.162-0.167,6.223,0.128l0.618,2.226c0.525,1.881,1.803,3.328,3.601,4.072c0.297,0.12,0.59,0.256,0.856,0.378  c1.866,0.884,3.891,0.811,5.705-0.209l1.706-0.966c0.661,0.541,1.287,1.108,1.867,1.692c0.941,0.937,1.814,1.958,2.604,3.048  l-1.197,2.112c-0.939,1.661-1.071,3.552-0.374,5.319c0.016,0.043,0.032,0.085,0.047,0.126c0.022,0.057,0.041,0.114,0.059,0.159  c0.718,1.895,2.19,3.239,4.148,3.788l1.998,0.555c0.108,0.96,0.165,1.923,0.165,2.873c0,0.952-0.057,1.919-0.165,2.879l-1.995,0.555  c-1.95,0.537-3.42,1.877-4.143,3.771c-0.024,0.057-0.045,0.114-0.067,0.173c-0.012,0.033-0.024,0.067-0.037,0.098  C84.095,75.374,84.091,75.38,84.089,75.386z M81.791,67.918c0-9.208-7.492-16.698-16.7-16.698c-9.204,0-16.692,7.49-16.692,16.698  c0,9.208,7.488,16.7,16.692,16.7C74.299,84.618,81.791,77.126,81.791,67.918z M36.918,66.533H2.744C1.781,66.533,1,67.314,1,68.276  c0,0.96,0.781,1.744,1.744,1.744h34.222c-0.055-0.712-0.081-1.423-0.081-2.129C36.885,67.44,36.897,66.987,36.918,66.533z   M40.939,62.124l-2.8,0.775c-0.443,0.124-0.789,0.457-0.935,0.882H3.981L1.587,36.103H55.85l-0.935,10.824  c-0.799,0.161-1.596,0.031-2.344-0.392l-2.639-1.496c-0.472-0.268-1.057-0.232-1.492,0.089c-1.179,0.868-2.289,1.82-3.304,2.836  c-1.031,1.031-1.986,2.143-2.838,3.306c-0.319,0.437-0.352,1.019-0.087,1.49l1.494,2.637c0.561,0.992,0.614,2.064,0.152,3.105  c-0.236,0.537-0.431,1.021-0.592,1.472C42.865,61.072,42.062,61.815,40.939,62.124z M33.61,50.638c0-0.76-0.616-1.376-1.376-1.376  h-7.039c-0.76,0-1.376,0.616-1.376,1.376c0,0.758,0.616,1.374,1.376,1.374h7.039C32.994,52.011,33.61,51.395,33.61,50.638z   M65.091,53.969c-7.689,0-13.943,6.258-13.943,13.949c0,7.693,6.254,13.949,13.943,13.949c7.693,0,13.949-6.256,13.949-13.949  C79.039,60.227,72.784,53.969,65.091,53.969z"/><text x="0" y="115" fill="#000000" font-size="5px" font-weight="bold" font-family="'Helvetica Neue', Helvetica, Arial-Unicode, Arial, Sans-serif">Created by littlestar23</text><text x="0" y="120" fill="#000000" font-size="5px" font-weight="bold" font-family="'Helvetica Neue', Helvetica, Arial-Unicode, Arial, Sans-serif">from the Noun Project</text></svg>