<svg xmlns="http://www.w3.org/2000/svg" xmlns:xlink="http://www.w3.org/1999/xlink" version="1.1" x="0px" y="0px" viewBox="0 0 128 160" enable-background="new 0 0 128 128" xml:space="preserve">
<linearGradient id="Gradient1">
<stop offset="0%" stop-color="#9e5cf4" />    
<stop offset="50%" stop-color="#5b69e6" />
<stop offset="100%" stop-color="#e8505a" />
    </linearGradient>

<g fill="url(#Gradient1)"><path d="M40.307,88.459l-2.264-1.306c-0.25-0.906-0.607-1.766-1.065-2.566l0.68-2.531c0.093-0.345-0.006-0.713-0.258-0.966   l-1.32-1.32c-0.253-0.253-0.622-0.352-0.965-0.258l-2.533,0.679c-0.809-0.463-1.669-0.821-2.568-1.068l-1.302-2.26   c-0.179-0.31-0.509-0.501-0.867-0.501h-1.871c-0.356,0-0.686,0.19-0.865,0.498l-1.314,2.265c-0.899,0.247-1.76,0.604-2.568,1.066   l-2.522-0.679c-0.341-0.091-0.707,0.004-0.96,0.251l-1.331,1.32c-0.257,0.253-0.358,0.625-0.265,0.973l0.681,2.538   c-0.457,0.815-0.81,1.67-1.055,2.55l-2.276,1.315c-0.309,0.179-0.5,0.509-0.5,0.866v1.883c0,0.357,0.19,0.688,0.5,0.866   l2.276,1.315c0.245,0.879,0.598,1.732,1.053,2.547l-0.68,2.531c-0.093,0.345,0.006,0.713,0.258,0.966l1.33,1.329   c0.253,0.254,0.624,0.352,0.967,0.259l2.522-0.679c0.801,0.458,1.662,0.815,2.567,1.065l1.315,2.265   c0.179,0.308,0.508,0.498,0.865,0.498h1.871c0.357,0,0.688-0.191,0.866-0.5l1.305-2.263c0.902-0.25,1.765-0.606,2.574-1.065   l2.524,0.68c0.348,0.093,0.721-0.007,0.974-0.266c0.292-0.297,0.474-0.479,0.657-0.662c0.185-0.184,0.37-0.369,0.662-0.667   c0.248-0.253,0.344-0.618,0.251-0.96l-0.68-2.524c0.46-0.811,0.817-1.669,1.065-2.563l2.264-1.304   c0.31-0.179,0.501-0.509,0.501-0.867v-1.883C40.808,88.968,40.617,88.637,40.307,88.459z M38.808,90.63l-2.128,1.225   c-0.239,0.138-0.411,0.369-0.474,0.637c-0.231,0.979-0.619,1.913-1.153,2.775c-0.146,0.235-0.188,0.52-0.116,0.787l0.64,2.375   l-0.245,0.247c-0.084,0.083-0.168,0.167-0.261,0.261l-2.37-0.638c-0.267-0.071-0.552-0.03-0.787,0.116   c-0.856,0.531-1.793,0.919-2.784,1.153c-0.269,0.063-0.5,0.234-0.637,0.474l-1.226,2.127h-0.717l-1.236-2.13   c-0.138-0.238-0.368-0.408-0.636-0.471c-0.995-0.234-1.927-0.622-2.769-1.15c-0.235-0.148-0.522-0.191-0.792-0.119l-2.374,0.639   l-0.513-0.512l0.637-2.366c0.073-0.266,0.034-0.55-0.109-0.786c-0.533-0.876-0.918-1.809-1.146-2.772   c-0.063-0.268-0.234-0.498-0.473-0.635l-2.139-1.236v-0.729l2.14-1.237c0.238-0.138,0.409-0.368,0.473-0.635   c0.228-0.964,0.614-1.897,1.146-2.773c0.142-0.233,0.182-0.515,0.111-0.779l-0.639-2.38l0.509-0.505l2.376,0.64   c0.268,0.073,0.555,0.03,0.791-0.119c0.853-0.535,1.784-0.921,2.767-1.149c0.269-0.063,0.5-0.233,0.639-0.472l1.236-2.131h0.717   l1.226,2.128c0.144,0.249,0.392,0.421,0.67,0.479c0.971,0.23,1.893,0.616,2.738,1.146c0.236,0.147,0.522,0.191,0.79,0.118   l2.384-0.64l0.502,0.502l-0.64,2.383c-0.072,0.269-0.029,0.555,0.119,0.791c0.528,0.841,0.915,1.773,1.15,2.77   c0.063,0.269,0.235,0.499,0.474,0.637l2.128,1.227V90.63z"/><path d="M30.813,85.392c-1.098-0.899-2.487-1.394-3.911-1.394c-3.456,0-6.267,2.812-6.267,6.269c0,1.288,0.389,2.519,1.113,3.546   c1.157,1.704,3.083,2.721,5.154,2.721c3.456,0,6.268-2.811,6.268-6.267C33.17,88.361,32.282,86.533,30.813,85.392z M26.903,94.533   c-1.407,0-2.715-0.689-3.51-1.859c-0.496-0.702-0.757-1.535-0.757-2.408c0-2.354,1.914-4.269,4.267-4.269   c0.963,0,1.902,0.334,2.664,0.958c1.004,0.78,1.604,2.018,1.604,3.311C31.17,92.619,29.256,94.533,26.903,94.533z"/><path d="M88.77,76.361c-7.667,0-13.904,6.238-13.904,13.905c0,7.667,6.237,13.903,13.904,13.903s13.904-6.237,13.904-13.903   C102.674,82.599,96.437,76.361,88.77,76.361z M88.77,102.17c-6.564,0-11.904-5.34-11.904-11.903c0-6.564,5.34-11.905,11.904-11.905   s11.904,5.341,11.904,11.905C100.674,96.83,95.334,102.17,88.77,102.17z"/><path d="M95.45,85.914c-0.552,0-1,0.448-1,1c0,3.257-2.141,6.021-5.088,6.965l1.046-1.432c0.326-0.446,0.229-1.071-0.218-1.397   c-0.446-0.326-1.071-0.229-1.397,0.218l-2.463,3.37c-0.022,0.03-0.027,0.068-0.046,0.1c-0.034,0.059-0.063,0.118-0.085,0.185   c-0.021,0.063-0.031,0.125-0.039,0.191c-0.005,0.039-0.023,0.073-0.023,0.114c0,0.029,0.014,0.054,0.017,0.083   c0.002,0.029-0.008,0.057-0.003,0.085c0.007,0.039,0.031,0.07,0.042,0.107c0.02,0.065,0.041,0.127,0.072,0.186   c0.029,0.055,0.063,0.104,0.103,0.152c0.043,0.054,0.088,0.102,0.141,0.146c0.023,0.02,0.038,0.047,0.063,0.065l3.442,2.358   c0.173,0.118,0.37,0.175,0.564,0.175c0.319,0,0.632-0.152,0.826-0.435c0.312-0.456,0.196-1.078-0.26-1.391l-1.35-0.925   c3.843-1.147,6.655-4.71,6.655-8.922C96.45,86.362,96.002,85.914,95.45,85.914z"/><path d="M87.133,88.085c-0.326,0.446-0.229,1.072,0.217,1.397c0.178,0.13,0.385,0.193,0.589,0.193c0.309,0,0.612-0.142,0.808-0.41   l2.464-3.37c0.022-0.03,0.027-0.068,0.046-0.1c0.034-0.06,0.063-0.119,0.085-0.186c0.021-0.063,0.031-0.125,0.039-0.191   c0.004-0.039,0.023-0.073,0.023-0.114c0-0.029-0.014-0.054-0.017-0.083c-0.002-0.028,0.008-0.056,0.003-0.085   c-0.007-0.039-0.03-0.07-0.042-0.107c-0.019-0.066-0.041-0.128-0.073-0.188c-0.029-0.055-0.063-0.102-0.101-0.15   c-0.044-0.055-0.089-0.103-0.143-0.147c-0.023-0.02-0.037-0.047-0.062-0.064l-3.443-2.36c-0.455-0.313-1.077-0.196-1.39,0.259   c-0.313,0.456-0.196,1.078,0.259,1.39l1.352,0.927c-3.844,1.147-6.657,4.71-6.657,8.921c0,0.552,0.448,1,1,1s1-0.448,1-1   c0-3.257,2.141-6.021,5.089-6.964L87.133,88.085z"/><path d="M116.235,40.199L99.083,24.101c-0.291-0.272-0.716-0.346-1.082-0.188c-0.366,0.158-0.603,0.519-0.603,0.917v5.138h-22.71   l-6.25-5.866c-0.292-0.273-0.716-0.348-1.082-0.189c-0.366,0.158-0.603,0.519-0.603,0.918v5.138H44.027l-6.251-5.867   c-0.291-0.272-0.715-0.346-1.082-0.188c-0.366,0.158-0.603,0.519-0.603,0.917v5.138H12.449c-0.552,0-1,0.448-1,1v19.92   c0,0.552,0.448,1,1,1h13.454l0,12.765c-2.23,0.463-3.912,2.443-3.912,4.809c0,2.708,2.203,4.912,4.912,4.912   c2.709,0,4.913-2.204,4.913-4.912c0-2.366-1.682-4.345-3.913-4.809l0-12.765h8.188v5.153c0,0.399,0.237,0.76,0.603,0.918   c0.128,0.055,0.263,0.082,0.397,0.082c0.25,0,0.496-0.094,0.685-0.271l6.261-5.882h13.135l0,12.765   c-2.23,0.463-3.911,2.443-3.911,4.809c0,2.708,2.203,4.912,4.911,4.912c2.709,0,4.913-2.204,4.913-4.912   c0-2.366-1.682-4.345-3.913-4.809l0-12.765h7.58v5.153c0,0.399,0.237,0.76,0.604,0.918c0.128,0.055,0.263,0.082,0.396,0.082   c0.25,0,0.497-0.094,0.686-0.272l6.26-5.881h12.223l0,12.765c-2.23,0.463-3.912,2.443-3.912,4.809c0,2.708,2.203,4.912,4.912,4.912   c2.709,0,4.913-2.204,4.913-4.912c0-2.366-1.682-4.345-3.913-4.809l0-12.765h8.477v5.153c0,0.399,0.237,0.76,0.603,0.918   c0.128,0.055,0.263,0.082,0.397,0.082c0.25,0,0.496-0.094,0.685-0.271l17.151-16.113c0.201-0.189,0.315-0.453,0.315-0.729   S116.437,40.388,116.235,40.199z M29.815,69.461c0,1.606-1.307,2.912-2.913,2.912c-1.605,0-2.912-1.306-2.912-2.912   s1.306-2.912,2.912-2.912C28.509,66.549,29.815,67.855,29.815,69.461z M42.953,50.159c-0.004,0.004-0.006,0.009-0.01,0.013   l-4.851,4.557v-3.841c0-0.552-0.448-1-1-1H13.449v-17.92h23.643c0.552,0,1-0.448,1-1v-3.829l14.691,13.789L42.953,50.159z    M61.085,69.461c0,1.606-1.307,2.912-2.913,2.912c-1.605,0-2.911-1.306-2.911-2.912s1.306-2.912,2.911-2.912   C59.779,66.549,61.085,67.855,61.085,69.461z M73.599,50.158c-0.019,0.017-0.029,0.04-0.045,0.058l-4.8,4.508v-3.837   c0-0.552-0.448-1-1-1H46.167l8.761-8.231c0.201-0.189,0.315-0.453,0.315-0.729s-0.114-0.54-0.315-0.729l-8.765-8.231h21.59   c0.552,0,1-0.448,1-1v-3.825l4.824,4.527c0.009,0.008,0.013,0.02,0.022,0.028l9.844,9.23L73.599,50.158z M90.834,69.461   c0,1.606-1.307,2.912-2.913,2.912c-1.605,0-2.912-1.306-2.912-2.912s1.306-2.912,2.912-2.912   C89.528,66.549,90.834,67.855,90.834,69.461z M99.399,54.729v-3.841c0-0.552-0.448-1-1-1H76.828l8.761-8.23   c0.202-0.189,0.316-0.453,0.316-0.729s-0.114-0.541-0.316-0.729l-8.769-8.23h21.579c0.552,0,1-0.448,1-1v-3.829l14.691,13.789   L99.399,54.729z"/><path d="M58.243,78.066c-6.728,0-12.201,5.473-12.201,12.199c0,6.727,5.474,12.2,12.201,12.2c6.727,0,12.2-5.473,12.2-12.2   C70.443,83.539,64.97,78.066,58.243,78.066z M58.243,100.466c-5.625,0-10.201-4.576-10.201-10.2   c0-5.624,4.576-10.199,10.201-10.199c5.624,0,10.2,4.575,10.2,10.199C68.443,95.89,63.867,100.466,58.243,100.466z"/>
<path d="M58.242,89.267c-0.816,0-1.48-0.547-1.48-1.219c0-0.671,0.664-1.218,1.48-1.218c0.543,0,1.044,0.248,1.306,0.647   c0.303,0.462,0.923,0.591,1.384,0.288c0.462-0.303,0.591-0.923,0.288-1.384c-0.457-0.696-1.164-1.181-1.978-1.405v-0.681   c0-0.552-0.448-1-1-1s-1,0.448-1,1v0.687c-1.43,0.4-2.48,1.616-2.48,3.066c0,1.775,1.561,3.219,3.48,3.219   c0.816,0,1.48,0.546,1.48,1.218s-0.664,1.218-1.48,1.218c-0.543,0-1.043-0.248-1.305-0.646c-0.303-0.461-0.922-0.591-1.385-0.287   c-0.461,0.303-0.59,0.923-0.287,1.385c0.457,0.696,1.164,1.179,1.977,1.403v0.681c0,0.552,0.448,1,1,1s1-0.448,1-1v-0.687   c1.43-0.4,2.48-1.616,2.48-3.066C61.723,90.71,60.161,89.267,58.242,89.267z"/><path d="M52.135,90.263c0-0.819,0.13-1.627,0.388-2.401c0.174-0.524-0.109-1.09-0.633-1.264c-0.524-0.175-1.091,0.109-1.264,0.633   c-0.325,0.978-0.49,1.998-0.49,3.032c0,1.111,0.189,2.202,0.562,3.241c0.146,0.408,0.531,0.663,0.941,0.663   c0.112,0,0.226-0.019,0.338-0.059c0.52-0.187,0.79-0.759,0.604-1.279C52.285,92.006,52.135,91.143,52.135,90.263z"/><path d="M64.593,86.594c-0.524,0.175-0.807,0.741-0.632,1.265c0.258,0.772,0.389,1.581,0.389,2.403   c0,0.882-0.149,1.744-0.443,2.563c-0.187,0.52,0.083,1.093,0.603,1.279c0.112,0.041,0.226,0.06,0.338,0.06   c0.41,0,0.794-0.254,0.941-0.662c0.373-1.037,0.562-2.126,0.562-3.24c0-1.038-0.166-2.059-0.491-3.036   C65.682,86.702,65.116,86.42,64.593,86.594z"/></g>
</svg>