<svg xmlns="http://www.w3.org/2000/svg" xmlns:xlink="http://www.w3.org/1999/xlink" version="1.1" x="0px" y="0px" viewBox="0 0 64 80" style="enable-background:new 0 0 64 64;" xml:space="preserve">
<linearGradient id="Gradient1">
<stop offset="0%" stop-color="#9e5cf4" />    
<stop offset="50%" stop-color="#5b69e6" />
<stop offset="100%" stop-color="#e8505a" />
    </linearGradient>
<g fill="url(#Gradient1)"><path d="M32,6c-4.411,0-8,3.589-8,8s3.589,8,8,8s8-3.589,8-8S36.411,6,32,6z M32,20c-3.309,0-6-2.691-6-6s2.691-6,6-6s6,2.691,6,6   S35.309,20,32,20z"/><path d="M32,10c-2.206,0-4,1.794-4,4s1.794,4,4,4s4-1.794,4-4S34.206,10,32,10z M32,16c-1.103,0-2-0.897-2-2s0.897-2,2-2   s2,0.897,2,2S33.103,16,32,16z"/><path d="M42.978,18.823c0.069-0.157,0.135-0.314,0.196-0.471L45,17.708v-7.415l-1.826-0.645c-0.062-0.157-0.127-0.314-0.196-0.471   l0.836-1.748l-5.242-5.244l-1.749,0.836c-0.155-0.069-0.313-0.134-0.471-0.196L35.708,1h-7.416l-0.644,1.826   c-0.158,0.062-0.315,0.127-0.471,0.196l-1.749-0.836L20.187,7.43l0.836,1.748c-0.069,0.157-0.135,0.314-0.196,0.471L19,10.292V13   h-5c-1.654,0-3,1.346-3,3v1H6.132L12,25.803L17.868,17H13v-1c0-0.551,0.448-1,1-1h5v2.708l1.826,0.645   c0.062,0.157,0.127,0.314,0.196,0.471l-0.836,1.748l5.242,5.244l1.749-0.836c0.155,0.069,0.313,0.134,0.471,0.196L28.292,27h7.416   l0.644-1.826c0.158-0.062,0.315-0.127,0.471-0.196l1.749,0.836l5.242-5.244L42.978,18.823z M12,22.197L9.868,19h4.264L12,22.197z    M41.451,17.242c-0.13,0.38-0.29,0.765-0.477,1.146l-0.214,0.435l0.639,1.334l-3.242,3.242l-1.335-0.638l-0.436,0.214   c-0.375,0.185-0.761,0.345-1.146,0.477l-0.458,0.157L34.292,25h-4.584l-0.491-1.392l-0.458-0.157   c-0.385-0.132-0.771-0.292-1.146-0.477l-0.436-0.214l-1.335,0.638l-3.242-3.242l0.639-1.334l-0.214-0.435   c-0.187-0.381-0.347-0.766-0.477-1.146l-0.156-0.458L21,16.292v-4.585l1.393-0.491l0.156-0.458c0.13-0.38,0.29-0.765,0.477-1.146   l0.214-0.435l-0.639-1.334l3.242-3.242l1.335,0.638l0.436-0.214c0.375-0.185,0.761-0.345,1.146-0.477l0.458-0.157L29.708,3h4.584   l0.491,1.392l0.458,0.157c0.385,0.132,0.771,0.292,1.146,0.477l0.436,0.214l1.335-0.638l3.242,3.242l-0.639,1.334l0.214,0.435   c0.187,0.381,0.347,0.766,0.477,1.146l0.156,0.458L43,11.708v4.585l-1.393,0.491L41.451,17.242z"/><path d="M59,27V16c0-1.654-1.346-3-3-3h-1V8.131L46.197,14L55,19.869V15h1c0.552,0,1,0.449,1,1v11H45c-2.206,0-4,1.794-4,4v28   c0,2.206,1.794,4,4,4h14c2.206,0,4-1.794,4-4V31C63,28.794,61.206,27,59,27z M53,16.131L49.803,14L53,11.869V16.131z M45,29h14   c1.103,0,2,0.897,2,2v4H43v-4C43,29.897,43.897,29,45,29z M49,53h-2v-6h2V53z M53,53h-2V41h2V53z M55,43h2v10h-2V43z M55,41v-2h-6   v6h-4v8h-2V37h18v16h-2V41H55z M59,61H45c-1.103,0-2-0.897-2-2v-4h18v4C61,60.103,60.103,61,59,61z"/><rect x="47" y="57" width="10" height="2"/><rect x="49" y="31" width="6" height="2"/><path d="M19,27H5c-2.206,0-4,1.794-4,4v28c0,2.206,1.794,4,4,4h14c2.206,0,4-1.794,4-4V31C23,28.794,21.206,27,19,27z M5,29h14   c1.103,0,2,0.897,2,2v4H3v-4C3,29.897,3.897,29,5,29z M9,53H7V41h2V53z M11,47h2v6h-2V47z M17,53h-2V43h2V53z M13,41v4h-2v-6H5v14   H3V37h18v16h-2V41H13z M19,61H5c-1.103,0-2-0.897-2-2v-4h18v4C21,60.103,20.103,61,19,61z"/><rect x="7" y="57" width="10" height="2"/><rect x="9" y="31" width="6" height="2"/></g>
</svg>