<svg xmlns="http://www.w3.org/2000/svg" xmlns:xlink="http://www.w3.org/1999/xlink" version="1.1" x="0px" y="0px" viewBox="0 0 66 82.5" enable-background="new 0 0 66 66" xml:space="preserve">
<linearGradient id="Gradient1">
<stop offset="0%" stop-color="#9e5cf4" />    
<stop offset="50%" stop-color="#5b69e6" />
<stop offset="100%" stop-color="#e8505a" />
    </linearGradient>

<g fill="url(#Gradient1)"><path d="M42.078,53.949c-2.565-0.649-6.563,0.929-8.519,1.82c-0.546-1.514-3.19-2.369-4.755-2.681   c-2.802-0.486-7.851-3.362-7.861-3.362c-2.512-1.863-5.999-0.827-8.318,0.252l-0.043-0.252c-0.033-0.196-0.143-0.371-0.305-0.486   c-0.163-0.115-0.364-0.161-0.561-0.127l-10.05,1.706c-0.195,0.033-0.37,0.143-0.485,0.305c-0.115,0.162-0.161,0.363-0.128,0.56   l2.156,12.7c0.062,0.365,0.379,0.624,0.738,0.624c0.042,0,0.084-0.003,0.127-0.011l10.049-1.706   c0.408-0.069,0.683-0.457,0.613-0.865l-0.131-0.772c4.287,0.718,9.861,2.62,9.902,2.634c1.376,0.517,2.723,0.718,3.984,0.718   c2.699,0,5.009-0.92,6.384-1.627c2.682-1.388,6.484-2.78,8.359-4.697c0.719-0.734,0.984-1.829,0.694-2.856   C43.662,54.873,42.968,54.171,42.078,53.949z M4.564,63.391l-1.905-11.22l8.57-1.455l1.904,11.221L4.564,63.391z M42.165,57.632   c-1.643,1.681-5.412,3.087-7.975,4.414c-1.795,0.923-5.372,2.257-9.174,0.83c-0.261-0.09-6.204-2.118-10.674-2.782l-1.455-8.576   c1.743-0.858,5.085-2.132,7.237-0.539c0.217,0.125,5.354,3.054,8.405,3.583c0.946,0.19,3.928,1.081,3.597,1.988   c-1.332,1.306-3.336,1.746-5.516,0.483c-1.794-1.041-3.959-1.345-4.05-1.358c-0.403-0.059-0.788,0.231-0.845,0.642   c-0.056,0.411,0.231,0.789,0.642,0.845c0.019,0.002,1.96,0.275,3.501,1.169c2.692,1.56,5.406,1.156,7.311-0.709   c1.631-0.846,6.179-2.813,8.542-2.218c0.526,0.132,0.718,0.624,0.776,0.83C42.601,56.634,42.576,57.212,42.165,57.632z"/><path d="M7.637,52.552c-1.196,0-2.17,0.974-2.17,2.171c0,1.197,0.974,2.17,2.17,2.17   c1.197,0,2.171-0.974,2.171-2.17C9.808,53.525,8.834,52.552,7.637,52.552z M7.637,55.393c-0.369,0-0.67-0.301-0.67-0.67   c0-0.37,0.301-0.671,0.67-0.671c0.37,0,0.671,0.301,0.671,0.671C8.308,55.092,8.007,55.393,7.637,55.393z"/><path  d="M62.79,1.631c-0.069-0.409-0.457-0.686-0.865-0.614l-10.05,1.706c-0.195,0.033-0.37,0.143-0.485,0.305   c-0.115,0.162-0.161,0.363-0.128,0.56l0.131,0.772c-4.288-0.718-9.861-2.62-9.903-2.634c-5.433-2.039-9.841,0.7-12.579,1.973   c-2.23,1.037-4.758,2.212-6.148,3.634c-1.486,1.519-0.827,4.236,1.159,4.733c2.569,0.649,6.565-0.93,8.518-1.82   c0.021,0.054,0.043,0.108,0.068,0.161c0.785,1.662,4.026,2.388,4.688,2.52c2.802,0.487,7.85,3.363,7.861,3.363   c1.006,0.746,2.167,1.027,3.348,1.027c1.772,0,3.578-0.635,4.969-1.283l0.043,0.256c0.062,0.366,0.379,0.625,0.738,0.625   c0.042,0,0.084-0.003,0.127-0.011l10.05-1.706c0.195-0.033,0.37-0.143,0.485-0.305c0.115-0.162,0.161-0.363,0.128-0.559   L62.79,1.631z M45.876,15.035c-0.217-0.124-5.354-3.054-8.405-3.583c-1.253-0.252-3.266-0.963-3.607-1.687   c-0.031-0.068-0.04-0.163,0.01-0.301c1.473-1.449,3.523-1.637,5.516-0.482c1.795,1.04,3.959,1.345,4.051,1.358   c0.034,0.004,0.068,0.007,0.103,0.007c0.369,0,0.69-0.272,0.741-0.648c0.057-0.41-0.229-0.788-0.64-0.845   c-0.02-0.002-1.97-0.281-3.503-1.169c-2.576-1.493-5.361-1.211-7.318,0.711c-1.637,0.848-6.183,2.812-8.535,2.215   c-0.831-0.208-1.149-1.518-0.453-2.229c1.199-1.226,3.594-2.34,5.708-3.323c2.531-1.176,6.556-3.754,11.438-1.921   c0.262,0.09,6.205,2.118,10.675,2.782l1.456,8.576C51.37,15.354,48.031,16.627,45.876,15.035z M54.771,15.297L52.866,4.076   l8.57-1.455l1.905,11.221L54.771,15.297z"/><path  d="M58.362,9.12c-1.196,0-2.17,0.974-2.17,2.17c0,1.197,0.974,2.17,2.17,2.17c1.197,0,2.171-0.974,2.171-2.17   C60.533,10.094,59.559,9.12,58.362,9.12z M58.362,11.961c-0.369,0-0.67-0.301-0.67-0.67c0-0.37,0.301-0.67,0.67-0.67   c0.37,0,0.671,0.301,0.671,0.67C59.033,11.66,58.732,11.961,58.362,11.961z"/><path  d="M50.952,33.368c0-0.067-0.022-0.128-0.038-0.19c-0.087-10.022-8.263-18.137-18.289-18.137   c-10.034,0-18.197,8.123-18.288,18.131c-0.018,0.064-0.04,0.127-0.04,0.196c0,0.077,0.022,0.147,0.044,0.217   c0.065,4.84,2.017,9.227,5.154,12.466c0.081,0.226,0.229,0.369,0.451,0.448c3.219,3.103,7.564,5.035,12.359,5.119   c0.214,0.102,0.419,0.105,0.639,0c4.794-0.083,9.139-2.016,12.359-5.119c0.222-0.078,0.37-0.221,0.452-0.449   c3.139-3.241,5.091-7.63,5.154-12.472C50.93,33.51,50.952,33.443,50.952,33.368z M47.22,34.118h2.162   c-0.188,4.06-1.817,7.741-4.395,10.551l-1.511-1.511c-0.293-0.293-0.768-0.293-1.061,0s-0.293,0.768,0,1.061l1.51,1.509   c-2.813,2.568-6.493,4.187-10.55,4.367v-2.132c0-0.414-0.336-0.75-0.75-0.75c-0.414,0-0.75,0.336-0.75,0.75v2.132   c-4.057-0.18-7.736-1.799-10.549-4.367l1.509-1.509c0.293-0.293,0.293-0.768,0-1.061c-0.293-0.293-0.768-0.293-1.06,0l-1.511,1.511   c-2.578-2.81-4.207-6.491-4.395-10.551h2.162c0.414,0,0.75-0.336,0.75-0.75c0-0.414-0.336-0.75-0.75-0.75h-2.165   c0.173-4.069,1.794-7.76,4.369-10.58l1.54,1.54c0.146,0.146,0.338,0.22,0.53,0.22c0.192,0,0.384-0.073,0.53-0.22   c0.293-0.293,0.293-0.768,0-1.061l-1.542-1.542c2.817-2.585,6.51-4.216,10.582-4.397v2.194c0,0.414,0.336,0.75,0.75,0.75   c0.414,0,0.75-0.336,0.75-0.75v-2.194c4.072,0.181,7.764,1.812,10.582,4.397l-1.542,1.542c-0.708,0.706,0.371,1.75,1.061,1.061   l1.541-1.54c2.575,2.821,4.195,6.512,4.369,10.58H47.22c-0.414,0-0.75,0.336-0.75,0.75C46.47,33.782,46.806,34.118,47.22,34.118z"/><path  d="M40.849,25.908c-0.013-0.031-0.122-0.204-0.16-0.243c-0.088-0.089-0.017-0.017-0.11-0.081   c-0.118-0.083-0.128-0.093-0.294-0.122c-0.033-0.006-0.061-0.022-0.095-0.024l-3.16-0.146c-0.421-0.015-0.764,0.3-0.783,0.714   c-0.02,0.414,0.301,0.765,0.715,0.784l1.52,0.07l-5.108,5.379v-9.061l1.144,1.144c0.146,0.146,0.338,0.22,0.53,0.22   c0.192,0,0.384-0.073,0.53-0.22c0.293-0.293,0.293-0.768,0-1.061l-2.424-2.424c-0.069-0.069-0.152-0.124-0.244-0.162   c-0.183-0.076-0.39-0.076-0.573,0c-0.092,0.038-0.174,0.093-0.244,0.162l-2.424,2.424c-0.293,0.293-0.293,0.768,0,1.061   c0.293,0.293,0.767,0.293,1.06,0l1.144-1.144v10.94c0,0.003,0.002,0.006,0.002,0.01c0.009,0.655,0.813,0.996,1.284,0.513   c0.002-0.002,0.006-0.003,0.008-0.006l6.146-6.472l-0.053,1.15c-0.02,0.414,0.301,0.765,0.715,0.784   c0.012,0,0.023,0.001,0.035,0.001c0.397,0,0.729-0.313,0.748-0.715l0.145-3.161c0-0.009-0.004-0.017-0.004-0.026   C40.902,26.141,40.862,25.94,40.849,25.908z"/></g>

</svg>