<svg width="306" height="151" viewBox="0 0 306 151" fill="none" xmlns="http://www.w3.org/2000/svg">
<g clip-path="url(#clip0_7207_72311)">
<mask id="mask0_7207_72311" style="mask-type:luminance" maskUnits="userSpaceOnUse" x="0" y="3" width="306" height="148">
<path d="M305.557 148.761C293.254 135.436 292.961 116.077 290.621 98.0921C288.28 80.108 284.713 60.6485 271.183 48.5711C252.538 31.928 222.758 35.981 201.537 22.7795C190.082 15.6529 182.946 10.7125 170.265 6.11026C157.125 1.3418 137.333 5.20193 125.129 12.0159C112.924 18.83 105.852 21.5429 93.4552 28C77.7555 36.1765 59 40.1098 47.3381 53.4263C39.4804 62.3983 36.0891 74.3706 33.6698 86.0492C31.2506 97.7279 29.506 109.762 24.1486 120.417C18.7917 131.073 12.3226 140.355 0.422363 141.15C13.6866 144.183 23.2716 145.636 36.8735 145.988C60.5146 146.601 84.1561 147.214 107.797 147.827C137.942 148.608 168.087 149.39 198.232 150.171C234.772 151.119 269.026 149.972 305.558 148.761H305.557Z" fill="white"/>
</mask>
<g mask="url(#mask0_7207_72311)">
<path d="M304.526 1.3429L304.555 4.78492L0.422363 7.34475V1.3429H304.526Z" fill="#EEECFA"/>
<path d="M304.555 4.78497L304.611 11.3884L0.422363 13.9487V7.3448L304.555 4.78497Z" fill="#EFEDFA"/>
<path d="M304.611 11.3879L304.666 17.9913L0.422363 20.5527V13.9483L304.611 11.3879Z" fill="#F0EEFA"/>
<path d="M304.666 17.9918L304.722 24.5957L0.422363 27.1571V20.5532L304.666 17.9918Z" fill="#F0EFFB"/>
<path d="M304.722 24.5955L304.777 31.1989L0.422363 33.7608V27.1569L304.722 24.5955Z" fill="#F1F0FB"/>
<path d="M304.777 31.1993L304.833 37.8027L0.422363 40.3652V33.7613L304.777 31.1993Z" fill="#F2F1FB"/>
<path d="M304.833 37.8023L304.888 44.4057L0.422363 46.9687V40.3647L304.833 37.8023Z" fill="#F3F2FB"/>
<path d="M304.888 44.4061L304.944 51.0095L0.422363 53.5729V46.969L304.888 44.4061Z" fill="#F4F3FC"/>
<path d="M304.944 51.009L305 57.6124L0.422363 60.1764V53.5725L304.944 51.009Z" fill="#F5F4FC"/>
<path d="M305 57.6129L305.055 64.2168L0.422363 66.7808V60.1769L305 57.6129Z" fill="#F6F5FC"/>
<path d="M305.055 64.2166L305.111 70.82L0.422363 73.3845V66.7806L305.055 64.2166Z" fill="#F7F6FD"/>
<path d="M305.111 70.8204L305.166 77.4238L0.422363 79.9889V73.385L305.111 70.8204Z" fill="#F8F7FD"/>
<path d="M305.166 77.4234L305.222 84.0268L0.422363 86.5924V79.9885L305.166 77.4234Z" fill="#F9F8FD"/>
<path d="M305.222 84.0264L305.278 90.6298L0.422363 93.1959V86.5919L305.222 84.0264Z" fill="#FAF9FD"/>
<path d="M305.278 90.6301L305.333 97.234L0.422363 99.8002V93.1962L305.278 90.6301Z" fill="#FAFAFE"/>
<path d="M305.333 97.2339L305.389 103.837L0.422363 106.404V99.8001L305.333 97.2339Z" fill="#FBFBFE"/>
<path d="M305.389 103.838L305.444 110.441L0.422363 113.009V106.405L305.389 103.838Z" fill="#FCFCFE"/>
<path d="M305.444 110.441L305.5 117.044L0.422363 119.612V113.008L305.444 110.441Z" fill="#FDFDFE"/>
<path d="M305.5 117.044L305.556 123.648L0.422363 126.217V119.613L305.5 117.044Z" fill="#FEFEFF"/>
<path d="M305.556 123.647L305.558 123.938V130.251L0.422363 132.82V126.216L305.556 123.647Z" fill="white"/>
<path d="M0.422363 132.82L305.558 130.251V151.119H0.422363V132.82Z" fill="white"/>
</g>
<g opacity="0.24">
<path d="M154.673 146.681C226.077 146.681 283.961 145.321 283.961 143.642C283.961 141.964 226.077 140.603 154.673 140.603C83.269 140.603 25.3848 141.964 25.3848 143.642C25.3848 145.321 83.269 146.681 154.673 146.681Z" fill="#5C49D8"/>
</g>
<mask id="mask1_7207_72311" style="mask-type:luminance" maskUnits="userSpaceOnUse" x="181" y="0" width="81" height="125">
<path d="M188.474 124.627H234.863C239.446 124.627 243.771 120.831 244.525 116.148L261.736 9.19846C262.49 4.51572 259.386 0.71936 254.803 0.71936H208.413C203.831 0.71936 199.505 4.51572 198.752 9.19846L181.54 116.148C180.787 120.831 183.891 124.627 188.473 124.627H188.474Z" fill="white"/>
</mask>
<g mask="url(#mask1_7207_72311)">
<path d="M262.489 116.423L260.915 0.71936H262.082L262.489 30.668V116.423Z" fill="#7F74DB"/>
<path d="M262.486 124.523L261.43 124.537L259.746 0.71936H260.912L262.486 116.423V124.523Z" fill="#8075DC"/>
<path d="M261.432 124.537L260.266 124.553L258.581 0.71936H259.748L261.432 124.537Z" fill="#8076DC"/>
<path d="M260.266 124.553L259.1 124.569L257.415 0.71936H258.582L260.266 124.553Z" fill="#8177DD"/>
<path d="M259.099 124.569L257.932 124.585L256.247 0.71936H257.414L259.099 124.569Z" fill="#8178DD"/>
<path d="M257.933 124.585L256.767 124.601L255.081 0.71936H256.248L257.933 124.585Z" fill="#8279DE"/>
<path d="M256.765 124.601L255.598 124.617L253.913 0.71936H255.079L256.765 124.601Z" fill="#827ADE"/>
<path d="M255.6 124.617L254.804 124.627H254.434L252.748 0.71936H253.915L255.6 124.617Z" fill="#837BDF"/>
<path d="M253.268 124.627L251.582 0.71936H252.749L254.435 124.627H253.268Z" fill="#847CDF"/>
<path d="M252.1 124.627L250.414 0.71936H251.581L253.266 124.627H252.1Z" fill="#847DE0"/>
<path d="M250.934 124.627L249.248 0.71936H250.415L252.101 124.627H250.934Z" fill="#857EE0"/>
<path d="M249.766 124.627L248.08 0.71936H249.247L250.933 124.627H249.766Z" fill="#857FE1"/>
<path d="M248.6 124.627L246.914 0.71936H248.081L249.767 124.627H248.6Z" fill="#8680E1"/>
<path d="M247.431 124.627L245.746 0.71936H246.912L248.598 124.627H247.431Z" fill="#8681E2"/>
<path d="M246.267 124.627L244.581 0.71936H245.748L247.433 124.627H246.267Z" fill="#8782E2"/>
<path d="M245.097 124.627L243.412 0.71936H244.578L246.264 124.627H245.097Z" fill="#8783E3"/>
<path d="M243.933 124.627L242.247 0.71936H243.414L245.099 124.627H243.933Z" fill="#8884E3"/>
<path d="M242.767 124.627L241.081 0.71936H242.248L243.934 124.627H242.767Z" fill="#8885E4"/>
<path d="M241.599 124.627L239.913 0.71936H241.08L242.765 124.627H241.599Z" fill="#8986E4"/>
<path d="M240.433 124.627L238.747 0.71936H239.914L241.6 124.627H240.433Z" fill="#8987E5"/>
<path d="M239.264 124.627L237.579 0.71936H238.745L240.431 124.627H239.264Z" fill="#8A88E5"/>
<path d="M238.1 124.627L236.414 0.71936H237.581L239.266 124.627H238.1Z" fill="#8B89E6"/>
<path d="M236.93 124.627L235.245 0.71936H236.411L238.097 124.627H236.93Z" fill="#8B8AE6"/>
<path d="M235.766 124.627L234.08 0.71936H235.247L236.932 124.627H235.766Z" fill="#8C8BE7"/>
<path d="M234.596 124.627L232.911 0.71936H234.077L235.763 124.627H234.596Z" fill="#8C8CE7"/>
<path d="M233.432 124.627L231.746 0.71936H232.913L234.598 124.627H233.432Z" fill="#8D8DE8"/>
<path d="M232.266 124.627L230.58 0.71936H231.747L233.433 124.627H232.266Z" fill="#8D8EE8"/>
<path d="M231.098 124.627L229.412 0.71936H230.579L232.265 124.627H231.098Z" fill="#8E8FE9"/>
<path d="M229.932 124.627L228.246 0.71936H229.413L231.099 124.627H229.932Z" fill="#8E90E9"/>
<path d="M228.763 124.627L227.078 0.71936H228.244L229.93 124.627H228.763Z" fill="#8F91EA"/>
<path d="M227.599 124.627L225.913 0.71936H227.08L228.765 124.627H227.599Z" fill="#8F92EA"/>
<path d="M226.429 124.627L224.744 0.71936H225.91L227.596 124.627H226.429Z" fill="#9093EB"/>
<path d="M225.265 124.627L223.579 0.71936H224.746L226.431 124.627H225.265Z" fill="#9094EB"/>
<path d="M224.096 124.627L222.41 0.71936H223.576L225.262 124.627H224.096Z" fill="#9196EC"/>
<path d="M222.931 124.627L221.245 0.71936H222.412L224.098 124.627H222.931Z" fill="#9297EC"/>
<path d="M221.762 124.627L220.076 0.71936H221.243L222.929 124.627H221.762Z" fill="#9298ED"/>
<path d="M220.596 124.627L218.911 0.71936H220.077L221.763 124.627H220.596Z" fill="#9399ED"/>
<path d="M219.432 124.627L217.746 0.71936H218.913L220.598 124.627H219.432Z" fill="#939AEE"/>
<path d="M218.262 124.627L216.577 0.71936H217.743L219.429 124.627H218.262Z" fill="#949BEE"/>
<path d="M217.098 124.627L215.412 0.71936H216.579L218.264 124.627H217.098Z" fill="#949CEF"/>
<path d="M215.932 124.627L214.246 0.71936H215.413L217.099 124.627H215.932Z" fill="#959DEF"/>
<path d="M214.764 124.627L213.078 0.71936H214.245L215.931 124.627H214.764Z" fill="#959EF0"/>
<path d="M213.598 124.627L211.912 0.71936H213.079L214.765 124.627H213.598Z" fill="#969FF0"/>
<path d="M212.429 124.627L210.744 0.71936H211.91L213.596 124.627H212.429Z" fill="#96A0F1"/>
<path d="M211.265 124.627L209.579 0.71936H210.746L212.431 124.627H211.265Z" fill="#97A1F1"/>
<path d="M210.099 124.627L208.413 0.71936H209.58L211.266 124.627H210.099Z" fill="#97A2F2"/>
<path d="M208.931 124.627L207.245 0.71936H208.412L210.097 124.627H208.931Z" fill="#98A3F2"/>
<path d="M207.765 124.627L206.079 0.71936H207.246L208.932 124.627H207.765Z" fill="#99A4F3"/>
<path d="M206.597 124.627L204.911 0.71936H206.078L207.764 124.627H206.597Z" fill="#99A5F3"/>
<path d="M205.431 124.627L203.745 0.71936H204.912L206.598 124.627H205.431Z" fill="#9AA6F4"/>
<path d="M204.262 124.627L202.577 0.71936H203.743L205.429 124.627H204.262Z" fill="#9AA7F4"/>
<path d="M203.098 124.627L201.412 0.71936H202.579L204.264 124.627H203.098Z" fill="#9BA8F5"/>
<path d="M201.928 124.627L200.243 0.71936H201.409L203.095 124.627H201.928Z" fill="#9BA9F5"/>
<path d="M200.764 124.627L199.078 0.71936H200.245L201.93 124.627H200.764Z" fill="#9CAAF6"/>
<path d="M199.598 124.627L197.912 0.71936H199.079L200.765 124.627H199.598Z" fill="#9CABF6"/>
<path d="M198.43 124.627L196.744 0.71936H197.911L199.597 124.627H198.43Z" fill="#9DACF7"/>
<path d="M197.264 124.627L195.578 0.71936H196.745L198.431 124.627H197.264Z" fill="#9DADF7"/>
<path d="M196.095 124.627L194.41 0.71936H195.576L197.262 124.627H196.095Z" fill="#9EAEF8"/>
<path d="M194.93 124.627L193.244 0.71936H194.411L196.097 124.627H194.93Z" fill="#9EAFF8"/>
<path d="M193.761 124.627L192.076 0.71936H193.242L194.928 124.627H193.761Z" fill="#9FB0F9"/>
<path d="M192.597 124.627L190.911 0.71936H192.078L193.763 124.627H192.597Z" fill="#A0B1F9"/>
<path d="M191.427 124.627L189.742 0.71936H190.908L192.594 124.627H191.427Z" fill="#A0B2FA"/>
<path d="M190.263 124.627L188.577 0.71936H189.744L191.429 124.627H190.263Z" fill="#A1B3FA"/>
<path d="M189.097 124.627L187.411 0.733471L188.472 0.71936H188.578L190.264 124.627H189.097Z" fill="#A1B4FB"/>
<path d="M187.928 124.628L186.243 0.749844L187.409 0.733643L189.095 124.628H187.928Z" fill="#A2B5FB"/>
<path d="M186.763 124.627L185.077 0.765253L186.244 0.749573L187.929 124.627H186.763Z" fill="#A2B6FC"/>
<path d="M185.594 124.628L183.909 0.781242L185.075 0.765564L186.761 124.628H185.594Z" fill="#A3B7FC"/>
<path d="M184.429 124.628L182.744 0.797695L183.91 0.781494L185.595 124.628H184.429Z" fill="#A3B8FD"/>
<path d="M183.263 124.628L181.578 0.813104L182.745 0.797424L184.43 124.628H183.263Z" fill="#A4B9FD"/>
<path d="M182.095 124.628L180.786 28.3496V0.82439L181.577 0.813416L183.262 124.628H182.095Z" fill="#A4BAFE"/>
<path d="M180.929 124.628L180.786 114.104V28.3494L182.095 124.628H180.929Z" fill="#A5BBFE"/>
</g>
<path d="M256.221 32.7825C256.635 32.7825 257.025 32.4402 257.093 32.0174L258.347 24.2281C258.415 23.8059 258.135 23.463 257.721 23.463C257.308 23.463 256.917 23.8053 256.849 24.2281L255.596 32.0174C255.528 32.4397 255.808 32.7825 256.221 32.7825Z" fill="white"/>
<path d="M253.451 49.9909C253.865 49.9909 254.255 49.6486 254.323 49.2258L256.416 36.2218C256.483 35.7995 256.203 35.4567 255.79 35.4567C255.377 35.4567 254.986 35.799 254.918 36.2218L252.826 49.2258C252.758 49.6481 253.038 49.9909 253.451 49.9909Z" fill="white"/>
<path d="M188.217 122.422H232.828C236.079 122.422 239.149 119.728 239.684 116.405L256.987 8.88786C257.521 5.56447 255.319 2.87085 252.067 2.87085H207.457C204.205 2.87085 201.135 5.56499 200.6 8.88786L183.298 116.405C182.763 119.729 184.965 122.422 188.217 122.422Z" fill="white"/>
<mask id="mask2_7207_72311" style="mask-type:luminance" maskUnits="userSpaceOnUse" x="45" y="0" width="81" height="125">
<path d="M118.68 124.627H72.2904C67.708 124.627 63.3822 120.831 62.6286 116.148L45.4174 9.19846C44.6638 4.51572 47.7677 0.71936 52.3501 0.71936H98.7401C103.322 0.71936 107.648 4.51572 108.402 9.19846L125.613 116.148C126.367 120.831 123.263 124.627 118.68 124.627H118.68Z" fill="white"/>
</mask>
<g mask="url(#mask2_7207_72311)">
<path d="M45.8923 0.719238L44.6626 24.3566V3.79333L44.8225 0.719238H45.8923Z" fill="#8075DC"/>
<path d="M46.9627 0.719238L44.6626 44.9199V24.3566L45.8923 0.719238H46.9627Z" fill="#8076DC"/>
<path d="M48.033 0.719238L44.6626 65.4832V44.9199L46.9627 0.719238H48.033Z" fill="#8177DD"/>
<path d="M49.1034 0.719238L44.6626 86.0465V65.4832L48.033 0.719238H49.1034Z" fill="#8178DD"/>
<path d="M50.1732 0.719238L44.6626 106.61V86.0465L49.1034 0.719238H50.1732Z" fill="#8279DE"/>
<path d="M51.2435 0.719238L44.846 123.647L44.6626 123.637V106.61L50.1732 0.719238H51.2435Z" fill="#827ADE"/>
<path d="M52.315 0.719238L45.9144 123.702L44.8472 123.647L51.2446 0.719238H52.315Z" fill="#837BDF"/>
<path d="M53.386 0.719238L46.9822 123.758L45.915 123.702L52.3157 0.719238H53.386Z" fill="#847CDF"/>
<path d="M54.4531 0.719238L48.0467 123.813L46.9795 123.758L53.3832 0.719238H54.4531Z" fill="#847DE0"/>
<path d="M55.5246 0.719238L49.1156 123.869L48.0479 123.813L54.4542 0.719238H55.5246Z" fill="#857EE0"/>
<path d="M56.595 0.719238L50.1829 123.924L49.1157 123.869L55.5247 0.719238H56.595Z" fill="#857FE1"/>
<path d="M57.6661 0.719238L51.2508 123.98L50.1836 123.924L56.5957 0.719238H57.6661Z" fill="#8680E1"/>
<path d="M58.7365 0.719238L52.3187 124.036L51.2515 123.98L57.6667 0.719238H58.7365Z" fill="#8681E2"/>
<path d="M59.8041 0.719238L53.3831 124.091L52.3159 124.036L58.7338 0.719238H59.8041Z" fill="#8782E2"/>
<path d="M60.8751 0.719238L54.4515 124.147L53.3838 124.091L59.8048 0.719238H60.8751Z" fill="#8783E3"/>
<path d="M61.9456 0.719238L55.5189 124.202L54.4517 124.147L60.8753 0.719238H61.9456Z" fill="#8884E3"/>
<path d="M63.0161 0.719238L56.5867 124.258L55.5195 124.202L61.9463 0.719238H63.0161Z" fill="#8885E4"/>
<path d="M64.0871 0.719238L57.6546 124.313L56.5874 124.258L63.0168 0.719238H64.0871Z" fill="#8986E4"/>
<path d="M65.1547 0.719238L58.7196 124.369L57.6519 124.313L64.0843 0.719238H65.1547Z" fill="#8987E5"/>
<path d="M66.2252 0.719238L59.7869 124.425L58.7197 124.369L65.1548 0.719238H66.2252Z" fill="#8A88E5"/>
<path d="M67.2957 0.719238L60.8548 124.48L59.7876 124.425L66.2258 0.719238H67.2957Z" fill="#8B89E6"/>
<path d="M68.3667 0.719238L61.9227 124.535L60.8555 124.48L67.2963 0.719238H68.3667Z" fill="#8B8AE6"/>
<path d="M69.4377 0.719238L62.9905 124.591L61.9233 124.535L68.3673 0.719238H69.4377Z" fill="#8C8BE7"/>
<path d="M70.5053 0.719238L64.0566 124.627H63.6839L62.9878 124.591L69.4349 0.719238H70.5053Z" fill="#8C8CE7"/>
<path d="M71.5776 0.719238L65.1289 124.627H64.0591L70.5078 0.719238H71.5776Z" fill="#8D8DE8"/>
<path d="M72.6494 0.719238L66.2007 124.627H65.1304L71.5791 0.719238H72.6494Z" fill="#8D8EE8"/>
<path d="M73.7173 0.719238L67.2686 124.627H66.1982L72.6469 0.719238H73.7173Z" fill="#8E8FE9"/>
<path d="M74.7886 0.719238L68.3399 124.627H67.2695L73.7182 0.719238H74.7886Z" fill="#8E90E9"/>
<path d="M75.8593 0.719238L69.4106 124.627H68.3408L74.7895 0.719238H75.8593Z" fill="#8F91EA"/>
<path d="M76.9277 0.719238L70.479 124.627H69.4087L75.8574 0.719238H76.9277Z" fill="#8F92EA"/>
<path d="M77.999 0.719238L71.5503 124.627H70.48L76.9287 0.719238H77.999Z" fill="#9093EB"/>
<path d="M79.0703 0.719238L72.6216 124.627H71.5513L78 0.719238H79.0703Z" fill="#9094EB"/>
<path d="M80.1377 0.719238L73.689 124.627H72.6191L79.0678 0.719238H80.1377Z" fill="#9196EC"/>
<path d="M81.2095 0.719238L74.7608 124.627H73.6904L80.1391 0.719238H81.2095Z" fill="#9297EC"/>
<path d="M82.2808 0.719238L75.8321 124.627H74.7617L81.2104 0.719238H82.2808Z" fill="#9298ED"/>
<path d="M83.3521 0.719238L76.9033 124.627H75.833L82.2817 0.719238H83.3521Z" fill="#9399ED"/>
<path d="M84.4199 0.719238L77.9707 124.627H76.9009L83.3496 0.719238H84.4199Z" fill="#939AEE"/>
<path d="M85.4912 0.719238L79.0425 124.627H77.9722L84.4214 0.719238H85.4912Z" fill="#949BEE"/>
<path d="M86.5591 0.719238L80.1104 124.627H79.04L85.4887 0.719238H86.5591Z" fill="#949CEF"/>
<path d="M87.6304 0.719238L81.1817 124.627H80.1113L86.56 0.719238H87.6304Z" fill="#959DEF"/>
<path d="M88.7016 0.719238L82.2524 124.627H81.1826L87.6313 0.719238H88.7016Z" fill="#959EF0"/>
<path d="M89.7695 0.719238L83.3208 124.627H82.2505L88.6997 0.719238H89.7695Z" fill="#969FF0"/>
<path d="M90.8408 0.719238L84.3921 124.627H83.3218L89.7705 0.719238H90.8408Z" fill="#96A0F1"/>
<path d="M91.9121 0.719238L85.4634 124.627H84.3931L90.8418 0.719238H91.9121Z" fill="#97A1F1"/>
<path d="M92.9829 0.719238L86.5337 124.627H85.4639L91.9126 0.719238H92.9829Z" fill="#97A2F2"/>
<path d="M94.0508 0.719238L87.6021 124.627H86.5317L92.981 0.719238H94.0508Z" fill="#98A3F2"/>
<path d="M95.1221 0.719238L88.6734 124.627H87.603L94.0517 0.719238H95.1221Z" fill="#99A4F3"/>
<path d="M96.1934 0.719238L89.7447 124.627H88.6743L95.123 0.719238H96.1934Z" fill="#99A5F3"/>
<path d="M97.2612 0.719238L90.812 124.627H89.7422L96.1909 0.719238H97.2612Z" fill="#9AA6F4"/>
<path d="M98.3325 0.719238L91.8838 124.627H90.8135L97.2627 0.719238H98.3325Z" fill="#9AA7F4"/>
<path d="M99.4038 0.719238L92.9551 124.627H91.8848L98.3335 0.719238H99.4038Z" fill="#9BA8F5"/>
<path d="M100.472 0.719238L94.023 124.627H92.9526L99.4013 0.719238H100.472Z" fill="#9BA9F5"/>
<path d="M101.543 0.719238L95.0937 124.627H94.0239L100.473 0.719238H101.543Z" fill="#9CAAF6"/>
<path d="M102.614 0.719238L96.1656 124.627H95.0952L101.544 0.719238H102.614Z" fill="#9CABF6"/>
<path d="M103.686 0.719238L97.2368 124.627H96.1665L102.615 0.719238H103.686Z" fill="#9DACF7"/>
<path d="M104.753 0.719238L98.3047 124.627H97.2344L103.683 0.719238H104.753Z" fill="#9DADF7"/>
<path d="M105.825 0.719238L99.3755 124.627H98.3057L104.754 0.719238H105.825Z" fill="#9EAEF8"/>
<path d="M106.896 0.719238L100.447 124.627H99.377L105.826 0.719238H106.896Z" fill="#9EAFF8"/>
<path d="M107.34 0.719238L107.962 0.751118L101.515 124.627H100.445L106.894 0.719238H107.34Z" fill="#9FB0F9"/>
<path d="M107.963 0.75116L109.03 0.807081L102.586 124.627H101.516L107.963 0.75116Z" fill="#A0B1F9"/>
<path d="M109.031 0.80658L110.099 0.861978L103.657 124.627H102.587L109.031 0.80658Z" fill="#A0B2FA"/>
<path d="M110.097 0.861938L111.164 0.917337L104.726 124.627H103.655L110.097 0.861938Z" fill="#A1B3FA"/>
<path d="M111.165 0.918213L112.233 0.974134L105.797 124.628H104.727L111.165 0.918213Z" fill="#A1B4FB"/>
<path d="M112.233 0.973633L113.301 1.02903L106.868 124.627H105.798L112.233 0.973633Z" fill="#A2B5FB"/>
<path d="M113.302 1.02905L114.369 1.08445L107.939 124.627H106.869L113.302 1.02905Z" fill="#A2B6FC"/>
<path d="M114.367 1.08441L115.434 1.13981L109.007 124.627H107.937L114.367 1.08441Z" fill="#A3B7FC"/>
<path d="M115.435 1.13983L116.502 1.19575L110.078 124.627H109.008L115.435 1.13983Z" fill="#A3B8FD"/>
<path d="M116.503 1.19611L117.57 1.2515L111.149 124.628H110.079L116.503 1.19611Z" fill="#A4B9FD"/>
<path d="M117.568 1.25153L118.635 1.30692L112.217 124.628H111.147L117.568 1.25153Z" fill="#A4BAFE"/>
<path d="M118.637 1.30688L119.704 1.36281L113.289 124.628H112.218L118.637 1.30688Z" fill="#A5BBFE"/>
<path d="M119.701 1.3623L120.769 1.4177L114.356 124.627H113.286L119.701 1.3623Z" fill="#A5BCFF"/>
<path d="M120.77 1.41772L121.837 1.47312L115.428 124.627H114.357L120.77 1.41772Z" fill="#A6BDFF"/>
<path d="M121.838 1.474L126.365 1.7097V124.628H115.429L121.838 1.474Z" fill="#A6BDFF"/>
</g>
<path d="M50.9277 32.7825C50.5143 32.7825 50.1239 32.4402 50.0559 32.0174L48.8021 24.2281C48.7342 23.8059 49.0143 23.463 49.4277 23.463C49.8411 23.463 50.2315 23.8053 50.2995 24.2281L51.5533 32.0174C51.6212 32.4397 51.3411 32.7825 50.9277 32.7825Z" fill="white"/>
<path d="M53.6977 49.9909C53.2843 49.9909 52.8938 49.6486 52.8259 49.2258L50.7333 36.2218C50.6654 35.7995 50.9455 35.4567 51.3589 35.4567C51.7723 35.4567 52.1627 35.799 52.2306 36.2218L54.3232 49.2258C54.3912 49.6481 54.1111 49.9909 53.6977 49.9909Z" fill="white"/>
<path d="M118.931 122.422H74.3205C71.0687 122.422 67.9988 119.728 67.4641 116.405L50.1615 8.88786C49.6269 5.56447 51.8292 2.87085 55.081 2.87085H99.6914C102.943 2.87085 106.013 5.56499 106.548 8.88786L123.85 116.405C124.385 119.729 122.183 122.422 118.931 122.422Z" fill="white"/>
<mask id="mask3_7207_72311" style="mask-type:luminance" maskUnits="userSpaceOnUse" x="201" y="32" width="39" height="61">
<path d="M237.891 66.3831C241.498 50.1779 236.428 35.2613 226.567 33.0661C216.706 30.8709 205.787 42.2283 202.18 58.4335C198.572 74.6388 203.642 89.5553 213.503 91.7506C223.365 93.9458 234.283 82.5884 237.891 66.3831Z" fill="white"/>
</mask>
<g mask="url(#mask3_7207_72311)">
<path d="M236.946 92.0102L240.839 60.6589V92.0102H236.946Z" fill="#7C6ED8"/>
<path d="M236.334 92.0104L240.837 55.7526V60.659L236.944 92.0104H236.334Z" fill="#7C6ED8"/>
<path d="M235.727 92.0103L240.839 50.8455V55.7525L236.336 92.0103H235.727Z" fill="#7D6FD9"/>
<path d="M235.119 92.011L240.84 45.9393V50.8462L235.728 92.011H235.119Z" fill="#7D70D9"/>
<path d="M234.508 92.0108L240.839 41.0322V45.9391L235.118 92.0108H234.508Z" fill="#7E71DA"/>
<path d="M233.896 92.0101L240.838 36.1251V41.0315L234.506 92.0101H233.896Z" fill="#7E72DA"/>
<path d="M233.289 92.0106L240.644 32.7896H240.839V36.1255L233.898 92.0106H233.289Z" fill="#7F73DB"/>
<path d="M232.681 92.0106L240.036 32.7896H240.645L233.29 92.0106H232.681Z" fill="#7F74DB"/>
<path d="M232.07 92.0106L239.425 32.7896H240.034L232.679 92.0106H232.07Z" fill="#8075DC"/>
<path d="M231.462 92.0106L238.817 32.7896H239.426L232.071 92.0106H231.462Z" fill="#8076DC"/>
<path d="M230.851 92.0106L238.206 32.7896H238.815L231.46 92.0106H230.851Z" fill="#8177DD"/>
<path d="M230.243 92.0106L237.598 32.7896H238.207L230.852 92.0106H230.243Z" fill="#8178DD"/>
<path d="M229.632 92.0106L236.987 32.7896H237.596L230.241 92.0106H229.632Z" fill="#8279DE"/>
<path d="M229.024 92.0106L236.379 32.7896H236.988L229.633 92.0106H229.024Z" fill="#827ADE"/>
<path d="M228.416 92.0106L235.771 32.7896H236.38L229.025 92.0106H228.416Z" fill="#837BDF"/>
<path d="M227.805 92.0106L235.16 32.7896H235.769L228.414 92.0106H227.805Z" fill="#847CDF"/>
<path d="M227.194 92.0106L234.549 32.7896H235.158L227.803 92.0106H227.194Z" fill="#847DE0"/>
<path d="M226.586 92.0106L233.941 32.7896H234.55L227.195 92.0106H226.586Z" fill="#857EE0"/>
<path d="M225.978 92.0106L233.333 32.7896H233.942L226.587 92.0106H225.978Z" fill="#857FE1"/>
<path d="M225.367 92.0106L232.722 32.7896H233.331L225.976 92.0106H225.367Z" fill="#8680E1"/>
<path d="M224.756 92.0106L232.111 32.7896H232.72L225.365 92.0106H224.756Z" fill="#8681E2"/>
<path d="M224.148 92.0106L231.503 32.7896H232.112L224.757 92.0106H224.148Z" fill="#8782E2"/>
<path d="M223.54 92.0106L230.895 32.7896H231.504L224.149 92.0106H223.54Z" fill="#8783E3"/>
<path d="M222.929 92.0106L230.284 32.7896H230.893L223.538 92.0106H222.929Z" fill="#8884E3"/>
<path d="M222.321 92.0106L229.676 32.7896H230.285L222.93 92.0106H222.321Z" fill="#8885E4"/>
<path d="M221.71 92.0106L229.065 32.7896H229.674L222.319 92.0106H221.71Z" fill="#8986E4"/>
<path d="M221.102 92.0106L228.457 32.7896H229.066L221.711 92.0106H221.102Z" fill="#8987E5"/>
<path d="M220.491 92.0106L227.846 32.7896H228.455L221.1 92.0106H220.491Z" fill="#8A88E5"/>
<path d="M219.883 92.0106L227.238 32.7896H227.847L220.492 92.0106H219.883Z" fill="#8B89E6"/>
<path d="M219.272 92.0106L226.627 32.7896H227.236L219.881 92.0106H219.272Z" fill="#8B8AE6"/>
<path d="M218.664 92.0106L226.019 32.7896H226.628L219.273 92.0106H218.664Z" fill="#8C8BE7"/>
<path d="M218.053 92.0106L225.408 32.7896H226.017L218.662 92.0106H218.053Z" fill="#8C8CE7"/>
<path d="M217.445 92.0106L224.8 32.7896H225.409L218.054 92.0106H217.445Z" fill="#8D8DE8"/>
<path d="M216.837 92.0106L224.192 32.7896H224.801L217.446 92.0106H216.837Z" fill="#8D8EE8"/>
<path d="M216.226 92.0106L223.581 32.7896H224.19L216.835 92.0106H216.226Z" fill="#8E8FE9"/>
<path d="M215.615 92.0106L222.97 32.7896H223.579L216.224 92.0106H215.615Z" fill="#8E90E9"/>
<path d="M215.007 92.0106L222.362 32.7896H222.971L215.616 92.0106H215.007Z" fill="#8F91EA"/>
<path d="M214.399 92.0106L221.754 32.7896H222.363L215.008 92.0106H214.399Z" fill="#8F92EA"/>
<path d="M213.788 92.0106L221.143 32.7896H221.752L214.397 92.0106H213.788Z" fill="#9093EB"/>
<path d="M213.18 92.0106L220.536 32.7896H221.145L213.79 92.0106H213.18Z" fill="#9094EB"/>
<path d="M212.569 92.0106L219.924 32.7896H220.534L213.178 92.0106H212.569Z" fill="#9196EC"/>
<path d="M211.961 92.0106L219.316 32.7896H219.925L212.57 92.0106H211.961Z" fill="#9297EC"/>
<path d="M211.35 92.0106L218.705 32.7896H219.314L211.959 92.0106H211.35Z" fill="#9298ED"/>
<path d="M210.742 92.0106L218.097 32.7896H218.707L211.352 92.0106H210.742Z" fill="#9399ED"/>
<path d="M210.131 92.0106L217.486 32.7896H218.095L210.74 92.0106H210.131Z" fill="#939AEE"/>
<path d="M209.523 92.0106L216.878 32.7896H217.487L210.132 92.0106H209.523Z" fill="#949BEE"/>
<path d="M208.912 92.0106L216.267 32.7896H216.876L209.522 92.0106H208.912Z" fill="#949CEF"/>
<path d="M208.304 92.0106L215.659 32.7896H216.269L208.914 92.0106H208.304Z" fill="#959DEF"/>
<path d="M207.696 92.0106L215.051 32.7896H215.661L208.306 92.0106H207.696Z" fill="#959EF0"/>
<path d="M207.085 92.0106L214.44 32.7896H215.049L207.694 92.0106H207.085Z" fill="#969FF0"/>
<path d="M206.474 92.0106L213.829 32.7896H214.438L207.084 92.0106H206.474Z" fill="#96A0F1"/>
<path d="M205.866 92.0106L213.221 32.7896H213.831L206.476 92.0106H205.866Z" fill="#97A1F1"/>
<path d="M205.258 92.0106L212.613 32.7896H213.223L205.868 92.0106H205.258Z" fill="#97A2F2"/>
<path d="M204.647 92.0106L212.002 32.7896H212.611L205.256 92.0106H204.647Z" fill="#98A3F2"/>
<path d="M204.039 92.0106L211.394 32.7896H212.003L204.648 92.0106H204.039Z" fill="#99A4F3"/>
<path d="M203.428 92.0106L210.783 32.7896H211.393L204.038 92.0106H203.428Z" fill="#99A5F3"/>
<path d="M202.82 92.0106L210.175 32.7896H210.785L203.43 92.0106H202.82Z" fill="#9AA6F4"/>
<path d="M202.209 92.0106L209.564 32.7896H210.173L202.818 92.0106H202.209Z" fill="#9AA7F4"/>
<path d="M201.601 92.0106L208.956 32.7896H209.565L202.21 92.0106H201.601Z" fill="#9BA8F5"/>
<path d="M200.99 92.0106L208.345 32.7896H208.955L201.6 92.0106H200.99Z" fill="#9BA9F5"/>
<path d="M200.382 92.0106L207.737 32.7896H208.347L200.992 92.0106H200.382Z" fill="#9CAAF6"/>
<path d="M199.771 92.0106L207.126 32.7896H207.735L200.38 92.0106H199.771Z" fill="#9CABF6"/>
<path d="M199.197 91.7367L206.518 32.7896H207.127L199.772 92.0106H199.197V91.7367Z" fill="#9DACF7"/>
<path d="M199.197 86.8298L205.908 32.7896H206.518L199.197 91.7367V86.8298Z" fill="#9DADF7"/>
<path d="M199.197 81.9228L205.299 32.7896H205.908L199.197 86.8298V81.9228Z" fill="#9EAEF8"/>
<path d="M199.197 77.0164L204.69 32.7896H205.299L199.197 81.9228V77.0164Z" fill="#9EAFF8"/>
<path d="M199.197 72.1095L204.08 32.7896H204.69L199.197 77.0164V72.1095Z" fill="#9FB0F9"/>
<path d="M199.197 67.2025L203.471 32.7896H204.08L199.197 72.1095V67.2025Z" fill="#A0B1F9"/>
<path d="M199.197 62.2956L202.861 32.7896H203.471L199.197 67.2025V62.2956Z" fill="#A0B2FA"/>
<path d="M199.197 57.3892L202.252 32.7896H202.861L199.197 62.2956V57.3892Z" fill="#A1B3FA"/>
<path d="M199.197 52.4822L201.643 32.7896H202.252L199.197 57.3892V52.4822Z" fill="#A1B4FB"/>
<path d="M199.197 47.5753L201.033 32.7896H201.643L199.197 52.4822V47.5753Z" fill="#A2B5FB"/>
<path d="M199.197 42.6683L200.424 32.7896H201.033L199.197 47.5753V42.6683Z" fill="#A2B6FC"/>
</g>
<mask id="mask4_7207_72311" style="mask-type:luminance" maskUnits="userSpaceOnUse" x="69" y="32" width="39" height="61">
<path d="M95.4363 91.8298C105.298 89.6346 110.367 74.7181 106.76 58.5128C103.152 42.3075 92.2338 30.9502 82.3725 33.1454C72.5112 35.3406 67.4415 50.2571 71.049 66.4624C74.6564 82.6677 85.575 94.0251 95.4363 91.8298Z" fill="white"/>
</mask>
<g mask="url(#mask4_7207_72311)">
<path d="M68.0835 60.7565L71.9771 92.1078H68.0835V60.7565Z" fill="#7C6ED8"/>
<path d="M68.0835 55.8494L72.5864 92.1077H71.9771L68.0835 60.7563V55.8494Z" fill="#7C6ED8"/>
<path d="M68.0835 50.9431L73.1958 92.1084H72.5864L68.0835 55.8501V50.9431Z" fill="#7D6FD9"/>
<path d="M68.0835 46.036L73.8052 92.1077H73.1958L68.0835 50.9424V46.036Z" fill="#7D70D9"/>
<path d="M68.0835 41.1289L74.4146 92.1075H73.8052L68.0835 46.0359V41.1289Z" fill="#7E71DA"/>
<path d="M68.0835 36.2218L75.024 92.1074H74.4146L68.0835 41.1287V36.2218Z" fill="#7E72DA"/>
<path d="M68.2784 32.8864L75.6334 92.1079H75.024L68.0835 36.2223V32.8864H68.2784Z" fill="#7F73DB"/>
<path d="M68.8877 32.8864L76.2426 92.1079H75.6333L68.2783 32.8864H68.8877Z" fill="#7F74DB"/>
<path d="M69.4956 32.8864L76.8505 92.1079H76.2412L68.8862 32.8864H69.4956Z" fill="#8075DC"/>
<path d="M70.1065 32.8864L77.4614 92.1079H76.852L69.4971 32.8864H70.1065Z" fill="#8076DC"/>
<path d="M70.7178 32.8864L78.0727 92.1079H77.4633L70.1084 32.8864H70.7178Z" fill="#8177DD"/>
<path d="M71.3257 32.8864L78.6806 92.1079H78.0712L70.7163 32.8864H71.3257Z" fill="#8178DD"/>
<path d="M71.9336 32.8864L79.2885 92.1079H78.6792L71.3242 32.8864H71.9336Z" fill="#8279DE"/>
<path d="M72.5444 32.8864L79.8994 92.1079H79.29L71.9351 32.8864H72.5444Z" fill="#827ADE"/>
<path d="M73.1523 32.8864L80.5073 92.1079H79.8979L72.543 32.8864H73.1523Z" fill="#837BDF"/>
<path d="M73.7637 32.8864L81.1186 92.1079H80.5092L73.1543 32.8864H73.7637Z" fill="#847CDF"/>
<path d="M74.3716 32.8864L81.7265 92.1079H81.1171L73.7622 32.8864H74.3716Z" fill="#847DE0"/>
<path d="M74.9829 32.8864L82.3379 92.1079H81.7285L74.3735 32.8864H74.9829Z" fill="#857EE0"/>
<path d="M75.5903 32.8864L82.9453 92.1079H82.3359L74.981 32.8864H75.5903Z" fill="#857FE1"/>
<path d="M76.2017 32.8864L83.5566 92.1079H82.9472L75.5923 32.8864H76.2017Z" fill="#8680E1"/>
<path d="M76.8096 32.8864L84.1645 92.1079H83.5551L76.2002 32.8864H76.8096Z" fill="#8681E2"/>
<path d="M77.4209 32.8864L84.7758 92.1079H84.1665L76.8115 32.8864H77.4209Z" fill="#8782E2"/>
<path d="M78.0283 32.8864L85.3833 92.1079H84.7739L77.4189 32.8864H78.0283Z" fill="#8783E3"/>
<path d="M78.6362 32.8864L85.9912 92.1079H85.3818L78.0269 32.8864H78.6362Z" fill="#8884E3"/>
<path d="M79.2476 32.8864L86.6025 92.1079H85.9931L78.6382 32.8864H79.2476Z" fill="#8885E4"/>
<path d="M79.8589 32.8864L87.2138 92.1079H86.6044L79.2495 32.8864H79.8589Z" fill="#8986E4"/>
<path d="M80.4663 32.8864L87.8213 92.1079H87.2119L79.8569 32.8864H80.4663Z" fill="#8987E5"/>
<path d="M81.0742 32.8864L88.4292 92.1079H87.8198L80.4648 32.8864H81.0742Z" fill="#8A88E5"/>
<path d="M81.6861 32.8864L89.041 92.1079H88.4311L81.0762 32.8864H81.6861Z" fill="#8B89E6"/>
<path d="M82.2969 32.8864L89.6518 92.1079H89.0424L81.6875 32.8864H82.2969Z" fill="#8B8AE6"/>
<path d="M82.9048 32.8864L90.2597 92.1079H89.6503L82.2954 32.8864H82.9048Z" fill="#8C8BE7"/>
<path d="M83.5122 32.8864L90.8672 92.1079H90.2578L82.9028 32.8864H83.5122Z" fill="#8C8CE7"/>
<path d="M84.1235 32.8864L91.4785 92.1079H90.8691L83.5142 32.8864H84.1235Z" fill="#8D8DE8"/>
<path d="M84.7314 32.8864L92.0864 92.1079H91.477L84.1221 32.8864H84.7314Z" fill="#8D8EE8"/>
<path d="M85.3428 32.8864L92.6977 92.1079H92.0883L84.7334 32.8864H85.3428Z" fill="#8E8FE9"/>
<path d="M85.9502 32.8864L93.3051 92.1079H92.6958L85.3408 32.8864H85.9502Z" fill="#8E90E9"/>
<path d="M86.5615 32.8864L93.9165 92.1079H93.3071L85.9521 32.8864H86.5615Z" fill="#8F91EA"/>
<path d="M87.1695 32.8864L94.5244 92.1079H93.915L86.5601 32.8864H87.1695Z" fill="#8F92EA"/>
<path d="M87.7773 32.8864L95.1323 92.1079H94.5229L87.168 32.8864H87.7773Z" fill="#9093EB"/>
<path d="M88.3882 32.8864L95.7431 92.1079H95.1337L87.7788 32.8864H88.3882Z" fill="#9094EB"/>
<path d="M88.9995 32.8864L96.3545 92.1079H95.7451L88.3901 32.8864H88.9995Z" fill="#9196EC"/>
<path d="M89.6074 32.8864L96.9624 92.1079H96.353L88.998 32.8864H89.6074Z" fill="#9297EC"/>
<path d="M90.2153 32.8864L97.5703 92.1079H96.9609L89.606 32.8864H90.2153Z" fill="#9298ED"/>
<path d="M90.8267 32.8864L98.1816 92.1079H97.5722L90.2173 32.8864H90.8267Z" fill="#9399ED"/>
<path d="M91.4375 32.8864L98.7924 92.1079H98.1831L90.8281 32.8864H91.4375Z" fill="#939AEE"/>
<path d="M92.0454 32.8864L99.4004 92.1079H98.791L91.436 32.8864H92.0454Z" fill="#949BEE"/>
<path d="M92.6533 32.8864L100.008 92.1079H99.3989L92.0439 32.8864H92.6533Z" fill="#949CEF"/>
<path d="M93.2647 32.8864L100.62 92.1079H100.01L92.6553 32.8864H93.2647Z" fill="#959DEF"/>
<path d="M93.8721 32.8864L101.227 92.1079H100.618L93.2627 32.8864H93.8721Z" fill="#959EF0"/>
<path d="M94.4834 32.8864L101.838 92.1079H101.229L93.874 32.8864H94.4834Z" fill="#969FF0"/>
<path d="M95.0913 32.8864L102.446 92.1079H101.837L94.4819 32.8864H95.0913Z" fill="#96A0F1"/>
<path d="M95.7027 32.8864L103.058 92.1079H102.448L95.0933 32.8864H95.7027Z" fill="#97A1F1"/>
<path d="M96.3101 32.8864L103.665 92.1079H103.056L95.7007 32.8864H96.3101Z" fill="#97A2F2"/>
<path d="M96.918 32.8864L104.273 92.1079H103.664L96.3086 32.8864H96.918Z" fill="#98A3F2"/>
<path d="M97.5293 32.8864L104.884 92.1079H104.275L96.9199 32.8864H97.5293Z" fill="#99A4F3"/>
<path d="M98.1406 32.8864L105.496 92.1079H104.886L97.5312 32.8864H98.1406Z" fill="#99A5F3"/>
<path d="M98.7481 32.8864L106.103 92.1079H105.494L98.1387 32.8864H98.7481Z" fill="#9AA6F4"/>
<path d="M99.356 32.8864L106.711 92.1079H106.102L98.7466 32.8864H99.356Z" fill="#9AA7F4"/>
<path d="M99.9673 32.8864L107.322 92.1079H106.713L99.3579 32.8864H99.9673Z" fill="#9BA8F5"/>
<path d="M100.579 32.8864L107.934 92.1079H107.324L99.9692 32.8864H100.579Z" fill="#9BA9F5"/>
<path d="M101.187 32.8864L108.541 92.1079H107.932L100.577 32.8864H101.187Z" fill="#9CAAF6"/>
<path d="M101.794 32.8864L109.149 92.1079H108.54L101.185 32.8864H101.794Z" fill="#9CABF6"/>
<path d="M102.405 32.8864L109.726 91.8335V92.1079H109.151L101.796 32.8864H102.405Z" fill="#9DACF7"/>
<path d="M103.013 32.8864L109.725 86.9271V91.8335L102.404 32.8864H103.013Z" fill="#9DADF7"/>
<path d="M103.625 32.8864L109.727 82.0201V86.9271L103.015 32.8864H103.625Z" fill="#9EAEF8"/>
<path d="M104.232 32.8864L109.724 77.1132V82.0201L103.623 32.8864H104.232Z" fill="#9EAFF8"/>
<path d="M104.843 32.8864L109.726 72.2062V77.1132L104.234 32.8864H104.843Z" fill="#9FB0F9"/>
<path d="M105.451 32.8864L109.725 67.2998V72.2062L104.842 32.8864H105.451Z" fill="#A0B1F9"/>
<path d="M106.059 32.8864L109.723 62.3928V67.2998L105.45 32.8864H106.059Z" fill="#A0B2FA"/>
<path d="M106.67 32.8864L109.725 57.4859V62.3928L106.061 32.8864H106.67Z" fill="#A1B3FA"/>
<path d="M107.281 32.8864L109.727 52.5789V57.4859L106.672 32.8864H107.281Z" fill="#A1B4FB"/>
<path d="M107.889 32.8864L109.725 47.6725V52.579L107.28 32.8864H107.889Z" fill="#A2B5FB"/>
<path d="M108.497 32.8864L109.724 42.7656V47.6725L107.888 32.8864H108.497Z" fill="#A2B6FC"/>
</g>
<mask id="mask5_7207_72311" style="mask-type:luminance" maskUnits="userSpaceOnUse" x="69" y="29" width="171" height="83">
<path d="M238.586 62.3994C236.335 78.7524 226.197 92.0099 215.94 92.0099C214.588 92.0099 213.303 91.7799 212.093 91.3419L146.428 111.006L98.619 90.6076C96.9142 91.5808 95.0192 92.1071 92.9757 92.1071C82.7197 92.1071 72.5802 78.8501 70.3302 62.4966C68.0793 46.1436 74.5698 32.8861 84.8258 32.8861C88.3389 32.8861 91.839 34.4419 95.0118 37.145L154.616 29.8998L214.266 36.7452C217.342 34.2282 220.709 32.7883 224.09 32.7883C234.346 32.7883 240.836 46.0453 238.585 62.3988L238.586 62.3994Z" fill="white"/>
</mask>
<g mask="url(#mask5_7207_72311)">
<path d="M129.103 78.7439L124.519 83.3085L123.453 85.1801C122.975 86.0194 123.348 87.0882 124.245 87.4467C125.899 88.1073 127.779 87.8345 129.177 86.7312L136.095 81.2692L141.194 76.955L129.103 78.7439Z" fill="#FFD3C6"/>
<g opacity="0.33">
<path d="M126.537 81.2413L131.216 85.011L133.686 83.1912L129.754 78.2518L126.537 81.2413Z" fill="#5C49D8"/>
</g>
<path d="M154.747 54.3705L174.335 57.8168L190.724 55.34L196.405 76.9554L179.798 81.2696L150.518 98.0225L133.328 85.6399L144.545 73.112L150.226 56.9607L154.747 54.3705Z" fill="#FFD3C6"/>
<g opacity="0.43">
<path d="M187.563 55.8321L185.354 56.1572L190.098 78.5784L194.582 77.4736L187.563 55.8321Z" fill="#5C49D8"/>
</g>
<path d="M120.596 58.104L129.531 56.7754C133.526 56.4404 139.352 54.0384 143.404 54.5637C149.732 55.3842 154.121 59.6724 158.798 61.8993L181.295 79.8662C182.534 80.9203 182.837 82.7124 182.012 84.1146C181.265 85.384 179.733 85.9584 178.336 85.4928L173.897 85.0208L175.91 86.8213C176.55 87.8514 176.525 89.1621 175.844 90.1661C174.99 91.4246 173.482 92.07 171.982 91.8181L168.55 91.2417L169.698 92.7494C170.637 93.9828 170.427 95.7389 169.223 96.7157C168.381 97.3982 167.357 97.7949 166.297 97.8686C165.534 97.9214 164.782 97.6559 164.168 97.1996L162.823 96.2003C162.823 98.3891 159.54 100.031 156.289 98.8914L126.258 79.2134L110.643 77.5101L109.019 60.103L120.595 58.104H120.596Z" fill="#FCAF9A"/>
<path d="M173.847 84.5383C173.824 84.5383 173.801 84.531 173.781 84.5159L164.385 77.4338C164.336 77.3972 164.326 77.3277 164.363 77.2785C164.4 77.2299 164.469 77.22 164.518 77.2566L173.914 84.3387C173.963 84.3753 173.973 84.4448 173.936 84.4939C173.914 84.5227 173.881 84.5378 173.848 84.5378L173.847 84.5383Z" fill="#1A1A1A"/>
<g opacity="0.33">
<path d="M125.24 57.3258L127.32 57.1956L122.446 78.8371L118.872 78.4472L125.24 57.3258Z" fill="#5C49D8"/>
</g>
<path d="M167.367 90.1963C167.344 90.1963 167.321 90.1895 167.301 90.1748L159.872 84.7123C159.823 84.6763 159.812 84.6068 159.849 84.5576C159.885 84.5085 159.954 84.4975 160.004 84.5341L167.433 89.9966C167.482 90.0327 167.493 90.1022 167.456 90.1513C167.434 90.1811 167.401 90.1963 167.367 90.1963Z" fill="#1A1A1A"/>
<path d="M162.823 96.3112C162.8 96.3112 162.778 96.3044 162.759 96.2903L155.478 91.0813C155.428 91.0457 155.417 90.9767 155.452 90.9266C155.488 90.8769 155.557 90.8654 155.607 90.901L162.888 96.11C162.937 96.1455 162.949 96.2145 162.913 96.2647C162.892 96.295 162.858 96.3112 162.823 96.3112Z" fill="#1A1A1A"/>
<path d="M182.474 56.7239L174.334 57.8162L163.43 49.9318C161.334 48.4167 158.684 47.8842 156.166 48.4732L146.108 50.8239L140.166 62.1226L141.295 62.467C144.226 63.3607 147.41 62.4597 149.437 60.1617L152.666 56.5023L157.29 57.3793L168.653 65.6828L179.142 64.3715L182.475 56.7239H182.474Z" fill="#FFD3C6"/>
<path d="M133.327 85.6399L133.207 86.093C132.658 88.1736 133.357 90.3843 135.002 91.7708C136.113 92.7073 137.666 92.9154 138.984 92.3049L140.165 91.7582L139.91 93.6674C139.802 94.4702 140.129 95.2693 140.767 95.7678L141.313 96.1938C142.17 96.8633 143.255 97.1716 144.336 97.053L146.874 96.7755C146.46 97.9117 147.095 99.1613 148.258 99.4952C150.064 100.014 152.003 99.387 153.164 97.9096L153.883 96.9939C155.408 95.0529 154.848 92.2098 152.702 90.9916L152.766 90.5207C153.06 88.392 151.691 86.3872 149.602 85.886C148.938 85.7266 148.24 85.793 147.618 86.0747L146.085 86.7693L146.083 86.7614C145.645 85.0817 144.329 83.7725 142.646 83.3455C142.553 83.322 142.456 83.322 142.363 83.3455L133.327 85.6404V85.6399Z" fill="#FFD3C6"/>
<path d="M140.166 91.869C140.133 91.869 140.1 91.8543 140.078 91.8261C140.04 91.7775 140.049 91.708 140.098 91.6704L145.199 87.7151C145.248 87.6775 145.317 87.6864 145.355 87.7344C145.393 87.7831 145.384 87.8526 145.335 87.8902L140.234 91.8454C140.213 91.8611 140.19 91.869 140.166 91.869Z" fill="#1A1A1A"/>
<path d="M147.453 96.2206C147.424 96.2206 147.396 96.2096 147.374 96.1882C147.331 96.1448 147.331 96.0748 147.374 96.0314L151.744 91.68C151.788 91.6366 151.858 91.6371 151.901 91.68C151.944 91.7234 151.944 91.7934 151.901 91.8368L147.531 96.1882C147.509 96.2096 147.481 96.2206 147.453 96.2206Z" fill="#1A1A1A"/>
<path d="M150.784 58.747C150.757 58.747 150.731 58.7381 150.71 58.7193C150.664 58.6791 150.66 58.6085 150.7 58.563L152.583 56.4297C152.623 56.3837 152.694 56.3795 152.739 56.4197C152.785 56.4605 152.789 56.5305 152.749 56.576L150.867 58.7094C150.845 58.7345 150.814 58.747 150.784 58.747Z" fill="#1A1A1A"/>
<path d="M185.728 52.5948L194.852 85.247C195.187 86.4464 196.38 87.1932 197.605 86.9711L284.487 75.9938C292.899 74.4678 300.936 71.3304 308.157 66.7538L379.948 22.4779C381.095 21.7514 381.416 20.2217 380.659 19.0954L360.852 -10.3724C360.149 -11.4192 358.758 -11.7469 357.661 -11.125L279.476 32.4674C279.27 32.5839 279.049 32.6696 278.818 32.7219L187.518 49.5939C186.173 49.8985 185.357 51.2663 185.728 52.5948Z" fill="#6E49D8"/>
<path d="M115.832 51.8763L125.33 53.6856C126.399 53.8894 127.06 54.9692 126.757 56.0139L119.393 81.3248C118.933 82.9052 117.301 83.8334 115.708 83.4205L103.793 80.3318L115.832 51.8768V51.8763Z" fill="white"/>
<path d="M117.338 51.0352L108.215 83.6873C107.88 84.8868 106.686 85.6336 105.461 85.4115L18.5793 74.4342C10.1676 72.9082 2.13015 69.7708 -5.09046 65.1942L-76.8822 20.9177C-78.0289 20.1913 -78.3503 18.6615 -77.593 17.5353L-57.7865 -11.9331C-57.083 -12.9799 -55.6918 -13.3076 -54.5948 -12.6857L23.5903 30.9067C23.7957 31.0232 24.0173 31.1089 24.2477 31.1612L115.548 48.0332C116.893 48.3379 117.709 49.7061 117.338 51.0346V51.0352Z" fill="#5C49D8"/>
<g opacity="0.33">
<path d="M116.464 51.9315L118.219 52.3214L110.875 82.1514L106.358 81.1767L116.464 51.9315Z" fill="#5C49D8"/>
</g>
<path d="M97.548 79.8654C96.5053 79.8654 95.4512 79.3997 94.7796 78.5912C94.1201 77.7968 93.8498 76.4855 94.0918 75.2511C94.3014 74.1823 94.8648 73.3325 95.6378 72.9202C96.8915 72.2507 98.3272 72.2617 99.478 72.9489C100.552 73.5907 101.171 74.718 101.175 76.0423C101.18 77.7038 100.015 79.2931 98.4641 79.7389C98.1668 79.8246 97.8579 79.8654 97.548 79.8654ZM97.5678 72.6474C96.9532 72.6474 96.3271 72.8031 95.7423 73.1156C95.0284 73.4966 94.5063 74.2905 94.3098 75.2934C94.0798 76.4652 94.3312 77.7043 94.9505 78.4496C95.7674 79.4326 97.1868 79.8758 98.403 79.5262C99.8622 79.1065 100.959 77.6092 100.954 76.0434C100.95 74.799 100.371 73.7407 99.3651 73.1397C98.8164 72.812 98.1986 72.6479 97.5683 72.6479L97.5678 72.6474Z" fill="white"/>
</g>
<path d="M211.075 107.615C211.12 107.615 211.299 107.56 211.57 107.467C215.105 106.248 218.245 104.098 220.676 101.257L223.921 97.4666C224.347 96.9685 225.131 97.0145 225.496 97.5586L225.686 97.8418C226.697 99.3459 228.124 100.522 229.794 101.226C230.552 101.546 230.613 102.597 229.896 103.002L221.86 107.544L211.216 108.396L211.074 107.615H211.075Z" fill="#6B5BD8"/>
<path d="M215.82 107.951C215.776 107.951 215.597 107.901 215.326 107.816C211.791 106.705 208.651 104.747 206.22 102.16L202.975 98.7072C202.548 98.2535 201.765 98.2954 201.4 98.7908L201.209 99.049C200.199 100.419 198.772 101.491 197.102 102.132C196.344 102.423 196.283 103.381 197 103.749L205.036 107.887L215.679 108.662L215.822 107.951H215.82Z" fill="#6B5BD8"/>
<path d="M218.234 106.939C218.191 106.939 218.15 106.914 218.131 106.872C218.105 106.816 218.131 106.749 218.187 106.723C221.576 105.195 224.614 102.87 226.973 99.9973C227.013 99.9492 227.084 99.9419 227.132 99.9816C227.18 100.021 227.188 100.092 227.148 100.141C224.767 103.04 221.701 105.387 218.281 106.929C218.265 106.936 218.25 106.939 218.234 106.939Z" fill="white"/>
<path d="M206.755 105.521C206.734 105.521 206.713 105.515 206.694 105.503C204.384 103.994 202.138 102.332 200.017 100.565C199.969 100.525 199.963 100.454 200.003 100.406C200.042 100.358 200.114 100.352 200.162 100.391C202.276 102.153 204.516 103.809 206.818 105.314C206.87 105.348 206.885 105.418 206.851 105.47C206.829 105.503 206.793 105.521 206.756 105.521H206.755Z" fill="white"/>
<path d="M215.413 107.821C216.201 107.322 216.837 106.523 216.964 105.599C217.091 104.675 216.619 103.652 215.757 103.296C214.894 102.94 213.737 103.449 213.553 104.364C213.708 103.805 213.183 103.22 212.606 103.167C212.028 103.114 211.477 103.47 211.123 103.93C210.512 104.724 210.386 105.851 210.767 106.777C211.148 107.703 212.009 108.406 212.984 108.634C213.959 108.863 215.024 108.628 215.838 108.043C216.035 107.902 216.23 107.722 216.277 107.484C216.325 107.246 216.148 106.956 215.906 106.978" fill="#6B5BD8"/>
<path d="M213.226 107.23C213.223 107.23 213.219 107.23 213.216 107.23C213.154 107.225 213.108 107.17 213.114 107.108L213.385 104.022C213.391 103.96 213.444 103.914 213.507 103.919C213.57 103.925 213.616 103.979 213.61 104.042L213.339 107.128C213.333 107.186 213.284 107.231 213.226 107.231V107.23Z" fill="white"/>
<path d="M192.625 143.128H226.008V110.424H192.625V143.128Z" fill="#A46ADE"/>
<path d="M198.725 143.113H203.754V112.3H198.725V143.113Z" fill="#6B5BD8"/>
<path d="M211.043 143.128H234.465V110.424H211.043V143.128Z" fill="#A46ADE"/>
<path d="M221.197 143.113H226.227V112.3H221.197V143.113Z" fill="#5C49D8"/>
<g opacity="0.53">
<path d="M234.436 112.108V113.955L211.007 114.719L192.672 114.145V111.663L234.436 112.108Z" fill="#6756D8"/>
</g>
<path d="M191.976 112.869H215.703V107.097H191.976V112.869Z" fill="#CE89E6"/>
<path d="M211.843 112.869H235.188V107.097H211.843V112.869Z" fill="#AF6EE2"/>
<path d="M221.606 112.891H226.742V106.991H221.606V112.891Z" fill="#6756D8"/>
<path d="M198.177 112.891H203.312V106.991H198.177V112.891Z" fill="#7B6ED8"/>
<path d="M93.5332 119.078C93.5646 119.076 93.6879 119.029 93.874 118.952C96.2989 117.942 98.4067 116.296 99.9871 114.198L102.096 111.397C102.373 111.029 102.925 111.027 103.205 111.393L103.351 111.583C104.126 112.594 105.178 113.356 106.38 113.776C106.926 113.967 107.014 114.702 106.53 115.017L101.094 118.555L93.667 119.619L93.5332 119.078V119.078Z" fill="#8A97EA"/>
<path d="M96.876 119.105C96.8446 119.107 96.7166 119.079 96.5227 119.031C93.9953 118.408 91.7072 117.172 89.8885 115.465L87.4614 113.186C87.1426 112.886 86.5949 112.95 86.3602 113.314L86.2379 113.503C85.5898 114.508 84.6355 115.322 83.4931 115.846C82.9741 116.083 82.9736 116.757 83.492 116.984L89.3094 119.533L96.807 119.61L96.8755 119.105L96.876 119.105Z" fill="#8A97EA"/>
<path d="M98.5167 118.29C98.4885 118.29 98.4608 118.274 98.4467 118.247C98.4263 118.209 98.4409 118.16 98.4796 118.14C100.789 116.92 102.817 115.155 104.346 113.038C104.371 113.002 104.421 112.994 104.456 113.02C104.492 113.045 104.5 113.095 104.474 113.131C102.931 115.268 100.884 117.049 98.5533 118.281C98.5413 118.287 98.5287 118.29 98.5162 118.29L98.5167 118.29Z" fill="white"/>
<path d="M90.4083 117.799C90.3952 117.799 90.3816 117.796 90.3691 117.789C88.6836 116.832 87.0352 115.765 85.47 114.619C85.4344 114.593 85.4271 114.543 85.4527 114.508C85.4789 114.473 85.5285 114.465 85.5635 114.491C87.1236 115.633 88.7667 116.697 90.4469 117.651C90.4851 117.672 90.4987 117.721 90.4767 117.759C90.4621 117.785 90.4354 117.799 90.4077 117.799H90.4083Z" fill="white"/>
<path d="M96.583 119.032C97.1139 118.648 97.5247 118.059 97.5733 117.406C97.6219 116.752 97.2456 116.056 96.6253 115.844C96.0049 115.633 95.2152 116.041 95.1264 116.69C95.211 116.291 94.817 115.904 94.4093 115.892C94.0017 115.881 93.6311 116.154 93.4033 116.492C93.0097 117.076 92.9706 117.872 93.2784 118.504C93.5862 119.137 94.2212 119.592 94.9152 119.71C95.6093 119.827 96.3457 119.615 96.8903 119.17C97.0225 119.062 97.151 118.928 97.174 118.758C97.197 118.589 97.0601 118.394 96.8913 118.42" fill="#8A97EA"/>
<path d="M95.0209 118.714H95.0188C94.9749 118.713 94.9404 118.676 94.9414 118.632L94.9963 116.456C94.9974 116.413 95.0329 116.379 95.0757 116.379H95.0778C95.1217 116.38 95.1562 116.416 95.1552 116.46L95.1003 118.637C95.0993 118.68 95.0637 118.714 95.0209 118.714Z" fill="white"/>
<path d="M109.547 120.882H87.1582V142.815H109.547V120.882Z" fill="#BACCFF"/>
<path d="M105.455 122.141H102.082V142.806H105.455V122.141Z" fill="#8A97EA"/>
<path d="M97.1925 120.882H81.4844V142.815H97.1925V120.882Z" fill="#A6BDFF"/>
<path d="M90.3809 122.141H87.0078V142.806H90.3809V122.141Z" fill="#6476EA"/>
<g opacity="0.53">
<path d="M81.5 122.014V123.252L97.2128 123.765L109.509 123.38V121.715L81.5 122.014Z" fill="#6756D8"/>
</g>
<path d="M109.979 118.65H94.0664V122.521H109.979V118.65Z" fill="#C9D7FF"/>
<path d="M96.6563 118.65H81V122.521H96.6563V118.65Z" fill="#B8CAFF"/>
<path d="M90.1101 118.58H86.666V122.537H90.1101V118.58Z" fill="#6476EA"/>
<path d="M105.819 118.58H102.375V122.537H105.819V118.58Z" fill="#8A97EA"/>
</g>
<defs>
<clipPath id="clip0_7207_72311">
<rect width="306" height="151" fill="white"/>
</clipPath>
</defs>
</svg>
