<svg width="191" height="59" viewBox="0 0 191 59" fill="none" xmlns="http://www.w3.org/2000/svg">
<rect x="0.384766" width="190" height="59" rx="6" fill="#1C1B1E"/>
<path d="M45.7694 36.405C45.2956 37.9075 44.5484 39.4099 43.528 40.9123C41.9608 43.268 40.3997 44.4459 38.8446 44.4459C38.2494 44.4459 37.399 44.2536 36.2934 43.869C35.2486 43.4844 34.3314 43.2921 33.5418 43.2921C32.8007 43.2921 31.9381 43.4904 30.9541 43.887C29.9701 44.2957 29.1682 44.5 28.5487 44.5C26.7021 44.5 24.8737 42.9435 23.0635 39.8305C21.2777 36.6935 20.3848 33.6707 20.3848 30.762C20.3848 28.0216 21.0712 25.774 22.444 24.0192C23.8168 22.2885 25.5419 21.4231 27.6193 21.4231C28.494 21.4231 29.5691 21.6034 30.8448 21.9639C32.1082 22.3245 32.9465 22.5048 33.3595 22.5048C33.9062 22.5048 34.7748 22.3005 35.9654 21.8918C37.2046 21.4832 38.2554 21.2788 39.118 21.2788C40.5637 21.2788 41.8575 21.6695 42.9995 22.4507C43.6312 22.8834 44.2629 23.4844 44.8947 24.2536C43.9349 25.0589 43.2425 25.768 42.8173 26.381C42.0276 27.5108 41.6328 28.7548 41.6328 30.113C41.6328 31.6034 42.0519 32.9435 42.8901 34.1334C43.7284 35.3233 44.6881 36.0805 45.7694 36.405ZM38.9175 15.2572C38.9175 15.9904 38.7414 16.8077 38.3891 17.7091C38.0246 18.6106 37.4597 19.4399 36.6943 20.1971C36.0383 20.8462 35.3823 21.2788 34.7263 21.4952C34.2768 21.6274 33.645 21.7296 32.8311 21.8017C32.8675 20.0108 33.3413 18.4663 34.2525 17.1683C35.1515 15.8822 36.67 14.9928 38.8082 14.5C38.8203 14.5361 38.8355 14.6022 38.8538 14.6983C38.872 14.7945 38.8872 14.8606 38.8993 14.8966C38.8993 14.9447 38.9024 15.0048 38.9084 15.0769C38.9145 15.149 38.9175 15.2091 38.9175 15.2572Z" fill="#DDDDDD"/>
<path d="M57.1735 22V13.72H59.9575C62.4775 13.72 63.8815 15.208 63.8815 17.848C63.8815 20.5 62.4775 22 59.9575 22H57.1735ZM58.2295 21.1H59.8855C61.7455 21.1 62.7895 19.936 62.7895 17.848C62.7895 15.784 61.7455 14.62 59.8855 14.62H58.2295V21.1ZM67.7157 22.132C66.0477 22.132 65.0997 21.064 65.0997 19.156C65.0997 17.248 66.0477 16.18 67.7157 16.18C69.3957 16.18 70.3437 17.248 70.3437 19.156C70.3437 21.064 69.3957 22.132 67.7157 22.132ZM67.7277 21.328C68.8077 21.328 69.4077 20.56 69.4077 19.156C69.4077 17.752 68.8077 16.984 67.7277 16.984C66.6357 16.984 66.0357 17.752 66.0357 19.156C66.0357 20.56 66.6357 21.328 67.7277 21.328ZM78.3033 16.312H79.2393L77.4873 22H76.4073L75.1593 17.632L73.8753 22H72.7593L71.0793 16.312H72.0873L73.3833 21.028L74.7753 16.312H75.6513L76.9833 21.028L78.3033 16.312ZM83.3054 16.18C84.3134 16.18 84.9494 16.792 84.9494 17.776V22H84.0374V18.028C84.0374 17.404 83.6054 17.008 82.9814 17.008C82.4294 17.008 81.8294 17.344 81.3494 17.872V22H80.4374V16.312H81.1694L81.2654 17.14C81.8054 16.552 82.5254 16.18 83.3054 16.18ZM86.8358 22V13.24H87.7478V22H86.8358ZM91.9501 22.132C90.2821 22.132 89.3341 21.064 89.3341 19.156C89.3341 17.248 90.2821 16.18 91.9501 16.18C93.6301 16.18 94.5781 17.248 94.5781 19.156C94.5781 21.064 93.6301 22.132 91.9501 22.132ZM91.9621 21.328C93.0421 21.328 93.6421 20.56 93.6421 19.156C93.6421 17.752 93.0421 16.984 91.9621 16.984C90.8701 16.984 90.2701 17.752 90.2701 19.156C90.2701 20.56 90.8701 21.328 91.9621 21.328ZM98.2291 16.18C99.3931 16.18 100.137 16.84 100.137 17.884V22H99.3811L99.2851 21.304C98.7451 21.82 97.9891 22.132 97.3051 22.132C96.3331 22.132 95.6971 21.496 95.6971 20.548C95.6971 19.192 96.9691 18.436 99.2131 18.436V17.86C99.2131 17.296 98.8531 16.96 98.0851 16.96C97.4491 16.96 96.8131 17.152 96.2131 17.464L95.9731 16.792C96.6691 16.396 97.5571 16.18 98.2291 16.18ZM97.6051 21.388C98.1211 21.388 98.7571 21.1 99.2131 20.644V19.072C97.5691 19.072 96.6451 19.564 96.6451 20.44C96.6451 20.992 96.9931 21.388 97.6051 21.388ZM105.707 13.24H106.619V22H105.887L105.779 21.256C105.359 21.844 104.711 22.132 103.943 22.132C102.455 22.132 101.615 21.028 101.615 19.192C101.615 17.332 102.479 16.18 103.955 16.18C104.567 16.18 105.203 16.384 105.707 16.912V13.24ZM104.195 21.328C104.771 21.328 105.347 21.052 105.707 20.536V17.776C105.335 17.284 104.771 16.984 104.159 16.984C103.163 16.984 102.563 17.8 102.563 19.144C102.563 20.62 103.223 21.328 104.195 21.328ZM113.524 22.132C111.856 22.132 110.908 21.064 110.908 19.156C110.908 17.248 111.856 16.18 113.524 16.18C115.204 16.18 116.152 17.248 116.152 19.156C116.152 21.064 115.204 22.132 113.524 22.132ZM113.536 21.328C114.616 21.328 115.216 20.56 115.216 19.156C115.216 17.752 114.616 16.984 113.536 16.984C112.444 16.984 111.844 17.752 111.844 19.156C111.844 20.56 112.444 21.328 113.536 21.328ZM120.606 16.18C121.614 16.18 122.25 16.792 122.25 17.776V22H121.338V18.028C121.338 17.404 120.906 17.008 120.282 17.008C119.73 17.008 119.13 17.344 118.65 17.872V22H117.738V16.312H118.47L118.566 17.14C119.106 16.552 119.826 16.18 120.606 16.18ZM129.148 21.172L129.4 21.808C129.088 21.964 128.776 22.048 128.452 22.048C127.552 22.048 127.048 21.532 127.048 20.62V17.104H126.16L126.388 16.312H127.048V14.26H127.96V16.312H129.112V17.104H127.96V20.596C127.96 21.016 128.176 21.256 128.56 21.256C128.752 21.256 128.956 21.244 129.148 21.172ZM133.52 16.18C134.516 16.18 135.164 16.792 135.164 17.776V22H134.252V18.028C134.252 17.404 133.808 17.008 133.196 17.008C132.632 17.008 132.044 17.344 131.564 17.872V22H130.652V13.24H131.564V17.032C132.104 16.504 132.788 16.18 133.52 16.18ZM139.235 22.132C137.591 22.132 136.643 21.064 136.643 19.168C136.643 17.248 137.615 16.18 139.199 16.18C140.747 16.18 141.467 17.14 141.467 18.856C141.467 18.952 141.455 19.12 141.455 19.24H137.591C137.591 20.632 138.239 21.328 139.355 21.328C140.087 21.328 140.735 21.04 141.203 20.56L141.323 21.364C140.831 21.856 140.111 22.132 139.235 22.132ZM137.615 18.592H140.507C140.507 17.572 140.063 16.984 139.187 16.984C138.191 16.984 137.711 17.656 137.615 18.592Z" fill="white"/>
<path d="M66.9761 45L65.7961 41.58H60.0161L58.8361 45H56.4161L61.4561 31.2H64.5161L69.5561 45H66.9761ZM60.6361 39.82H65.1961L62.9961 33.38H62.8561L60.6361 39.82ZM76.2009 35.24C78.4609 35.24 80.0809 37.1 80.0809 40.24C80.0809 43.4 78.6209 45.24 76.2409 45.24C75.0809 45.24 74.1009 44.82 73.4009 43.92V49H71.4409V35.48H73.0209L73.2209 36.58C74.0209 35.62 75.1209 35.24 76.2009 35.24ZM75.6209 43.56C77.1409 43.56 78.0609 42.38 78.0609 40.24C78.0609 38.14 77.1609 36.9 75.6609 36.9C74.7809 36.9 73.9609 37.3 73.4009 38.02V42.46C73.9409 43.18 74.7409 43.56 75.6209 43.56ZM87.197 35.24C89.457 35.24 91.077 37.1 91.077 40.24C91.077 43.4 89.617 45.24 87.237 45.24C86.077 45.24 85.097 44.82 84.397 43.92V49H82.437V35.48H84.017L84.217 36.58C85.017 35.62 86.117 35.24 87.197 35.24ZM86.617 43.56C88.137 43.56 89.057 42.38 89.057 40.24C89.057 38.14 88.157 36.9 86.657 36.9C85.777 36.9 84.957 37.3 84.397 38.02V42.46C84.937 43.18 85.737 43.56 86.617 43.56ZM101.826 45.24C100.386 45.24 98.5858 44.9 97.4858 44.32L98.0658 42.32C99.0458 42.88 100.326 43.28 101.726 43.28C103.226 43.28 104.326 42.62 104.326 41.38C104.326 40.04 103.066 39.48 101.666 38.82C99.8858 37.98 97.8058 36.98 97.8058 34.62C97.8058 32.28 99.7658 30.96 102.366 30.96C103.686 30.96 105.326 31.28 106.186 31.78L105.646 33.72C104.746 33.24 103.406 32.92 102.446 32.92C101.086 32.92 100.206 33.52 100.206 34.62C100.206 35.86 101.486 36.48 102.866 37.16C104.666 37.98 106.726 38.92 106.726 41.36C106.726 43.68 104.846 45.24 101.826 45.24ZM113.3 43.36L113.78 44.7C113.22 44.98 112.66 45.12 112.08 45.12C110.4 45.12 109.44 44.18 109.44 42.52V37.14H107.98L108.4 35.48H109.44V32.1H111.4V35.48H113.28V37.14H111.4V42.44C111.4 43.12 111.74 43.5 112.38 43.5C112.7 43.5 113.02 43.48 113.3 43.36ZM119.364 45.24C116.504 45.24 114.884 43.44 114.884 40.24C114.884 37.04 116.504 35.24 119.364 35.24C122.244 35.24 123.864 37.04 123.864 40.24C123.864 43.44 122.244 45.24 119.364 45.24ZM119.384 43.56C121.004 43.56 121.884 42.4 121.884 40.24C121.884 38.08 121.004 36.9 119.384 36.9C117.744 36.9 116.864 38.08 116.864 40.24C116.864 42.4 117.744 43.56 119.384 43.56ZM131.086 35.24L131.246 36.9C130.106 36.96 129.006 37.42 128.186 38.18V45H126.226V35.48H127.806L128.026 36.82C128.906 35.84 130.086 35.24 131.086 35.24ZM136.766 45.24C133.946 45.24 132.326 43.44 132.326 40.24C132.326 37.04 133.966 35.24 136.726 35.24C139.366 35.24 140.646 36.86 140.646 39.76C140.646 39.94 140.646 40.3 140.606 40.56H134.346C134.346 42.56 135.366 43.56 137.106 43.56C138.306 43.56 139.386 43.14 140.186 42.44L140.406 44.04C139.546 44.82 138.266 45.24 136.766 45.24ZM134.366 39.32H138.626C138.626 37.78 137.946 36.9 136.666 36.9C135.206 36.9 134.486 37.9 134.366 39.32Z" fill="white"/>
</svg>
