<svg width="1560" height="391" viewBox="0 0 1560 391" fill="none" xmlns="http://www.w3.org/2000/svg">
<g clip-path="url(#clip0_2611_11950)">
<rect y="0.183594" width="1560" height="390" rx="42" fill="url(#paint0_linear_2611_11950)"/>
<g opacity="0.05">
<circle cx="779.5" cy="194.684" r="131.5" stroke="white" stroke-width="55"/>
<circle cx="779.5" cy="194.684" r="231.5" stroke="white" stroke-width="72"/>
<circle cx="780.5" cy="194.684" r="363.5" stroke="white" stroke-width="90"/>
</g>
<g opacity="0.8" clip-path="url(#clip1_2611_11950)">
<path d="M232.846 410.133L230.174 312.243C230.143 311.165 229.524 310.19 228.561 309.705L178.367 284.431C176.954 283.68 175.2 284.216 174.449 285.628C174.432 285.66 174.416 285.692 174.4 285.725L131.187 370.026C130.439 371.466 131 373.239 132.439 373.987C132.46 373.998 132.481 374.009 132.502 374.019L225.084 420.248L225.399 420.363C226.825 420.89 228.418 420.241 229.07 418.868L232.576 411.473C232.771 411.053 232.863 410.594 232.846 410.133Z" fill="#FFA000"/>
<path d="M284.805 325.94C285.18 324.361 284.204 322.778 282.625 322.403C282.617 322.402 282.609 322.4 282.6 322.398L257.846 316.545L184.736 299.255C183.172 298.878 181.597 299.829 181.201 301.387L157.309 392.727C156.925 394.198 157.728 395.719 159.158 396.233L159.473 396.347L260.098 420.495C261.676 420.873 263.261 419.901 263.639 418.323C263.642 418.311 263.645 418.299 263.648 418.287L284.805 325.94Z" fill="#FFE082"/>
<path d="M236.241 330.523C234.716 329.97 233.927 328.286 234.48 326.76C234.746 326.025 235.295 325.426 236.004 325.097L254.832 316.323C256.29 315.613 258.048 316.218 258.759 317.677C259.47 319.135 258.864 320.894 257.405 321.605C257.375 321.619 257.344 321.634 257.313 321.648L238.486 330.421C237.781 330.751 236.973 330.788 236.241 330.523Z" fill="#455A64"/>
<path d="M262.344 327.526C269.966 330.302 278.395 326.374 281.172 318.753C283.948 311.131 280.02 302.702 272.398 299.925C264.776 297.149 256.347 301.077 253.571 308.699C250.794 316.321 254.722 324.75 262.344 327.526Z" fill="#F44336"/>
</g>
<g clip-path="url(#clip2_2611_11950)">
<path d="M50.8699 8.23343L36.5699 -8.39012L-29.9254 9.3499C-33.576 10.3238 -35.7456 14.0727 -34.7717 17.7233L-3.24179 135.908C-2.26794 139.558 1.48075 141.728 5.13132 140.754L83.3878 119.876C84.8353 119.49 86.0488 118.667 86.9272 117.587L92.4977 116.101L63.9817 9.21348L50.8699 8.23343Z" fill="#EAF6FF"/>
<path d="M63.9819 9.21416L60.8834 8.98264L62.2419 14.0746L88.2347 111.504C89.2086 115.155 87.0387 118.903 83.3881 119.877L92.3816 117.478C96.0322 116.504 98.2021 112.755 97.2281 109.105L71.2353 11.675L63.9819 9.21416Z" fill="#D8ECFE"/>
<path d="M60.2212 34.0913L-8.52163 52.4309C-9.61675 52.723 -10.7413 52.0721 -11.0335 50.977C-11.3257 49.8819 -10.6748 48.7573 -9.57963 48.4651L59.1629 30.1256C60.258 29.8334 61.3826 30.4843 61.6748 31.5795C61.9669 32.6746 61.3163 33.7991 60.2212 34.0913Z" fill="#BAE0E0"/>
<path d="M64.9243 51.7143L-3.81851 70.0539C-4.91363 70.3461 -6.03821 69.6952 -6.33037 68.6001C-6.62254 67.5049 -5.97163 66.3803 -4.87651 66.0882L63.866 47.7486C64.9612 47.4565 66.0857 48.1074 66.3779 49.2025C66.6701 50.2976 66.0194 51.4221 64.9243 51.7143Z" fill="#BAE0E0"/>
<path d="M69.6274 69.3413L0.88462 87.6809C-0.2105 87.973 -1.33509 87.3221 -1.62725 86.227C-1.91941 85.1319 -1.2685 84.0073 -0.173384 83.7151L68.5692 65.3756C69.6643 65.0834 70.7889 65.7343 71.081 66.8295C71.3734 67.9245 70.7225 69.0491 69.6274 69.3413Z" fill="#BAE0E0"/>
<path d="M74.3266 86.9682L5.58384 105.308C4.48872 105.6 3.36413 104.949 3.07197 103.854C2.77981 102.759 3.43072 101.634 4.52584 101.342L73.2684 83.0025C74.3635 82.7104 75.4881 83.3613 75.7802 84.4564C76.0727 85.5515 75.4218 86.676 74.3266 86.9682Z" fill="#BAE0E0"/>
<path d="M50.4806 17.2109L71.2355 11.6738L36.5703 -8.39062L42.1074 12.3643C43.0814 16.0149 46.83 18.1848 50.4806 17.2109Z" fill="#B3DAFE"/>
</g>
<g opacity="0.9" clip-path="url(#clip3_2611_11950)">
<path d="M1584.34 286.193C1585.07 283.796 1583.73 281.258 1581.34 280.511L1514.05 259.739L1507.35 281.443C1506.61 283.841 1504.07 285.184 1501.67 284.444L1477.79 277.073L1448.31 372.574C1447.58 374.971 1448.92 377.509 1451.31 378.256L1542.47 406.399C1544.87 407.131 1547.41 405.79 1548.15 403.399L1584.34 286.193Z" fill="#F7CF9B"/>
<path d="M1475.19 385.627L1542.47 406.4C1544.87 407.14 1547.41 405.796 1548.15 403.399L1567.52 340.652C1545.64 369.467 1511.36 386.163 1475.19 385.627Z" fill="#FFE2BD"/>
<path d="M1507.35 281.443L1514.05 259.739L1477.79 277.073L1501.67 284.444C1504.07 285.184 1506.61 283.841 1507.35 281.443Z" fill="#FFA993"/>
<path d="M1528.52 328.394L1482.94 314.322C1481.74 313.952 1481.07 312.68 1481.44 311.481C1481.81 310.282 1483.08 309.611 1484.28 309.981L1529.86 324.053C1531.05 324.423 1531.73 325.695 1531.36 326.893C1530.99 328.092 1529.71 328.764 1528.52 328.394Z" fill="#FF7956"/>
<path d="M1511.47 337.394L1478.92 327.343C1477.72 326.973 1477.05 325.701 1477.42 324.503C1477.79 323.304 1479.06 322.632 1480.26 323.002L1512.81 333.054C1514.01 333.424 1514.68 334.695 1514.31 335.894C1513.94 337.093 1512.67 337.765 1511.47 337.394Z" fill="#FF7956"/>
<path d="M1494.43 346.397L1474.89 340.367C1473.69 339.996 1473.02 338.725 1473.39 337.526C1473.76 336.327 1475.03 335.656 1476.23 336.026L1495.77 342.056C1496.97 342.426 1497.64 343.698 1497.27 344.897C1496.9 346.096 1495.63 346.767 1494.43 346.397Z" fill="#FF7956"/>
<path d="M1545.56 319.391L1504.32 306.659C1503.12 306.289 1502.45 305.018 1502.82 303.819C1503.19 302.62 1504.46 301.948 1505.66 302.319L1546.9 315.05C1548.1 315.42 1548.77 316.692 1548.4 317.891C1548.03 319.09 1546.76 319.761 1545.56 319.391Z" fill="#FF7956"/>
<path d="M1495.64 303.979L1486.96 301.298C1485.76 300.928 1485.08 299.656 1485.45 298.458C1485.82 297.259 1487.1 296.587 1488.3 296.957L1496.98 299.638C1498.18 300.008 1498.85 301.28 1498.48 302.478C1498.11 303.677 1496.84 304.349 1495.64 303.979Z" fill="#FF7956"/>
</g>
<path d="M1406.83 384.099L1407.72 372.499L1415.27 374.475L1418.22 381.701L1406.83 384.099Z" fill="#939598"/>
<path d="M1430.72 346.254L1433.79 342.755L1444.29 351.956L1441.22 355.455L1430.72 346.254Z" fill="#ACABB1"/>
<path d="M1439.37 338.731C1438.98 338.796 1438.6 338.895 1438.23 339.028C1437.11 339.428 1436.11 340.107 1435.33 341.003L1433.8 342.759L1444.29 351.955L1445.82 350.21C1447.77 347.985 1448.11 344.771 1446.66 342.19C1445.21 339.61 1442.29 338.223 1439.37 338.731Z" fill="#C6C5CA"/>
<path d="M1430.73 346.248L1407.72 372.501L1414.51 375.349L1416.19 378.215L1418.23 381.695L1440.53 356.248L1441.23 355.456L1439.2 353.675L1430.73 346.248Z" fill="#FFD733"/>
<path d="M1417.49 373.194C1417.02 373.226 1416.57 372.971 1416.37 372.549C1416.16 372.126 1416.22 371.62 1416.53 371.266L1428.17 357.993C1428.43 357.647 1428.87 357.478 1429.3 357.552C1429.72 357.627 1430.08 357.934 1430.21 358.348C1430.34 358.763 1430.23 359.215 1429.92 359.522L1418.28 372.8C1418.08 373.032 1417.79 373.174 1417.49 373.194Z" fill="#F1F2F2"/>
<path d="M1432.19 356.419C1431.72 356.45 1431.28 356.195 1431.07 355.773C1430.86 355.351 1430.93 354.845 1431.24 354.492L1432.77 352.742C1433.2 352.272 1433.92 352.231 1434.4 352.649C1434.88 353.068 1434.93 353.791 1434.52 354.276L1432.99 356.025C1432.79 356.258 1432.5 356.4 1432.19 356.419Z" fill="#F1F2F2"/>
</g>
<defs>
<linearGradient id="paint0_linear_2611_11950" x1="4.7556e-06" y1="254.184" x2="1807.5" y2="242.684" gradientUnits="userSpaceOnUse">
<stop stop-color="#8B5FE7" stop-opacity="0.78"/>
<stop offset="1" stop-color="#DC87F2" stop-opacity="0.39"/>
</linearGradient>
<linearGradient id="paint1_linear_2611_11950" x1="780" y1="274.184" x2="780" y2="338.184" gradientUnits="userSpaceOnUse">
<stop stop-color="#9C5DF4"/>
<stop offset="1" stop-color="#5C6AE6"/>
</linearGradient>
<clipPath id="clip0_2611_11950">
<rect y="0.183594" width="1560" height="390" rx="42" fill="white"/>
</clipPath>
<clipPath id="clip1_2611_11950">
<rect width="141.026" height="141.026" fill="white" transform="translate(172.266 257.184) rotate(20.0146)"/>
</clipPath>
<clipPath id="clip2_2611_11950">
<rect width="136" height="136" fill="white" transform="translate(-52 15.2402) rotate(-14.9378)"/>
</clipPath>
<clipPath id="clip3_2611_11950">
<rect width="131.751" height="131.751" fill="white" transform="translate(1479.87 249.184) rotate(17.157)"/>
</clipPath>
</defs>
</svg>