<svg width="139" height="32" viewBox="0 0 139 32" fill="none" xmlns="http://www.w3.org/2000/svg">
<g clip-path="url(#clip0_8396_80825)">
<g clip-path="url(#clip1_8396_80825)">
<path d="M28.4781 1.04053H5.42978C4.6342 1.04053 3.98926 2.15677 3.98926 3.53373C3.98926 4.91069 4.6342 6.02694 5.42978 6.02694H28.4781C29.2737 6.02694 29.9186 4.91069 29.9186 3.53373C29.9186 2.15677 29.2737 1.04053 28.4781 1.04053Z" fill="url(#paint0_linear_8396_80825)"/>
</g>
<path d="M32.3394 7.28638H2.28419C1.02267 7.28638 0 8.30905 0 9.57057C0 10.8321 1.02267 11.8548 2.28419 11.8548H32.3394C33.6009 11.8548 34.6236 10.8321 34.6236 9.57057C34.6236 8.30905 33.6009 7.28638 32.3394 7.28638Z" fill="url(#paint1_linear_8396_80825)"/>
<path d="M20.2452 28.4132V10.2198C20.2452 8.59972 18.9319 7.2864 17.3118 7.2864C15.6918 7.2864 14.3785 8.59972 14.3785 10.2198V28.4132C14.3785 30.0333 15.6918 31.3466 17.3118 31.3466C18.9319 31.3466 20.2452 30.0333 20.2452 28.4132Z" fill="url(#paint2_linear_8396_80825)"/>
<path d="M7.67507 21.95C9.66446 21.95 11.2772 20.3372 11.2772 18.3478C11.2772 16.3584 9.66446 14.7457 7.67507 14.7457C5.68567 14.7457 4.07294 16.3584 4.07294 18.3478C4.07294 20.3372 5.68567 21.95 7.67507 21.95Z" fill="url(#paint3_linear_8396_80825)"/>
<path d="M26.4671 21.95C28.4565 21.95 30.0692 20.3372 30.0692 18.3478C30.0692 16.3584 28.4565 14.7457 26.4671 14.7457C24.4777 14.7457 22.8649 16.3584 22.8649 18.3478C22.8649 20.3372 24.4777 21.95 26.4671 21.95Z" fill="url(#paint4_linear_8396_80825)"/>
</g>
<g clip-path="url(#clip2_8396_80825)">
<path d="M66.0201 5.59353H58.359V30.7148H53.2899V5.59353H45.6641V1.23281H66.0201V5.59353Z" fill="url(#paint5_linear_8396_80825)"/>
<path d="M74.0388 14.5385C72.4845 14.5385 71.1554 15.0776 70.0514 16.1557C68.9475 17.2339 68.3956 18.5443 68.3956 20.0826V30.7148H62.6685V20.0826C62.6685 16.9446 63.7724 14.2887 65.9758 12.1193C68.1836 9.9499 70.8683 8.86301 74.0343 8.86301V14.5341L74.0388 14.5385Z" fill="url(#paint6_linear_8396_80825)"/>
<path d="M83.1175 4.02455C83.1175 4.97996 82.7907 5.78637 82.1416 6.44376C81.4925 7.10554 80.6844 7.43424 79.7218 7.43424C78.7592 7.43424 77.9468 7.10554 77.2844 6.44376C76.6176 5.78637 76.2865 4.97558 76.2865 4.02455C76.2865 3.07351 76.6176 2.27149 77.2844 1.62286C77.9468 0.978612 78.7636 0.654297 79.7218 0.654297C80.68 0.654297 81.4528 0.982995 82.1195 1.64477C82.7819 2.30655 83.1175 3.09543 83.1175 4.02455Z" fill="url(#paint7_linear_8396_80825)"/>
<path d="M82.6108 8.86296H76.8838V30.7148H82.6108V8.86296Z" fill="url(#paint8_linear_8396_80825)"/>
<path d="M91.7738 4.02455C91.7738 4.97996 91.447 5.78637 90.7979 6.44376C90.1488 7.10554 89.3408 7.43424 88.3781 7.43424C87.4155 7.43424 86.6031 7.10554 85.9407 6.44376C85.274 5.78637 84.9428 4.97558 84.9428 4.02455C84.9428 3.07351 85.274 2.27149 85.9407 1.62286C86.6031 0.978612 87.42 0.654297 88.3781 0.654297C89.3363 0.654297 90.1091 0.982995 90.7758 1.64477C91.4382 2.30655 91.7738 3.09543 91.7738 4.02455Z" fill="url(#paint9_linear_8396_80825)"/>
<path d="M91.261 8.86301H85.5339V30.7148H91.261V8.86301Z" fill="url(#paint10_linear_8396_80825)"/>
<path d="M114.323 21.3535C114.323 24.1365 113.351 26.4987 111.409 28.4358C109.466 30.373 107.086 31.3415 104.277 31.3415C101.469 31.3415 99.0536 30.3774 97.1063 28.449C95.1634 26.5206 94.192 24.154 94.192 21.3404V1.24156H99.2744V12.6715C100.802 11.8256 102.471 11.4005 104.277 11.4005C107.086 11.4005 109.466 12.3647 111.409 14.2887C113.351 16.2127 114.323 18.5705 114.323 21.3535ZM109.24 21.3535C109.24 20.0124 108.75 18.8598 107.774 17.8912C106.794 16.9226 105.628 16.4406 104.273 16.4406C102.917 16.4406 101.712 16.9183 100.736 17.8737C99.7601 18.8291 99.27 19.9861 99.27 21.3535C99.27 22.7209 99.7601 23.8823 100.736 24.8508C101.712 25.8194 102.895 26.3015 104.273 26.3015C105.651 26.3015 106.825 25.8194 107.792 24.8508C108.759 23.8823 109.24 22.7165 109.24 21.3535Z" fill="url(#paint11_linear_8396_80825)"/>
<path d="M138.435 20.0694C138.435 20.6304 138.391 21.187 138.307 21.748H121.722C122.088 22.9269 122.768 23.8735 123.758 24.5879C124.747 25.3023 125.864 25.6617 127.109 25.6617C128.836 25.6617 130.262 25.0043 131.392 23.6807L134.872 28.2693C132.695 30.3204 130.107 31.3416 127.109 31.3416C123.912 31.3416 121.219 30.2547 119.028 28.0853C116.838 25.9158 115.739 23.2468 115.739 20.0782C115.739 16.9095 116.843 14.2843 119.046 12.1149C121.254 9.94551 123.939 8.85861 127.105 8.85861C130.271 8.85861 132.951 9.94113 135.141 12.1105C137.331 14.2799 138.431 16.9314 138.431 20.0606L138.435 20.0694ZM132.028 17.4968C130.982 15.5334 129.343 14.5517 127.109 14.5517C124.875 14.5517 123.192 15.5334 122.146 17.4968H132.028Z" fill="url(#paint12_linear_8396_80825)"/>
</g>
<defs>
<linearGradient id="paint0_linear_8396_80825" x1="5.10052" y1="3.42985" x2="89.9888" y2="0.506797" gradientUnits="userSpaceOnUse">
<stop stop-color="#905CFF"/>
<stop offset="0.333333" stop-color="#6E65EA"/>
<stop offset="0.395833" stop-color="#6966E0"/>
</linearGradient>
<linearGradient id="paint1_linear_8396_80825" x1="1.48387" y1="18.8152" x2="114.96" y2="17.7339" gradientUnits="userSpaceOnUse">
<stop stop-color="#905CFF"/>
<stop offset="0.333333" stop-color="#6E65EA"/>
<stop offset="0.395833" stop-color="#6966E0"/>
</linearGradient>
<linearGradient id="paint2_linear_8396_80825" x1="1.48387" y1="18.8152" x2="114.96" y2="17.7339" gradientUnits="userSpaceOnUse">
<stop stop-color="#905CFF"/>
<stop offset="0.333333" stop-color="#6E65EA"/>
<stop offset="0.395833" stop-color="#6966E0"/>
</linearGradient>
<linearGradient id="paint3_linear_8396_80825" x1="1.48387" y1="18.8152" x2="114.96" y2="17.7339" gradientUnits="userSpaceOnUse">
<stop stop-color="#905CFF"/>
<stop offset="0.333333" stop-color="#6E65EA"/>
<stop offset="0.395833" stop-color="#6966E0"/>
</linearGradient>
<linearGradient id="paint4_linear_8396_80825" x1="1.48387" y1="18.8152" x2="114.96" y2="17.7339" gradientUnits="userSpaceOnUse">
<stop stop-color="#905CFF"/>
<stop offset="0.333333" stop-color="#6E65EA"/>
<stop offset="0.395833" stop-color="#6966E0"/>
</linearGradient>
<linearGradient id="paint5_linear_8396_80825" x1="48.596" y1="24.8972" x2="140.516" y2="11.5118" gradientUnits="userSpaceOnUse">
<stop stop-color="#905CFF"/>
<stop offset="1" stop-color="#6966E0"/>
</linearGradient>
<linearGradient id="paint6_linear_8396_80825" x1="48.596" y1="24.8972" x2="140.516" y2="11.5118" gradientUnits="userSpaceOnUse">
<stop stop-color="#905CFF"/>
<stop offset="1" stop-color="#6966E0"/>
</linearGradient>
<linearGradient id="paint7_linear_8396_80825" x1="48.596" y1="24.8972" x2="140.516" y2="11.5118" gradientUnits="userSpaceOnUse">
<stop stop-color="#905CFF"/>
<stop offset="1" stop-color="#6966E0"/>
</linearGradient>
<linearGradient id="paint8_linear_8396_80825" x1="48.596" y1="24.8972" x2="140.516" y2="11.5118" gradientUnits="userSpaceOnUse">
<stop stop-color="#905CFF"/>
<stop offset="1" stop-color="#6966E0"/>
</linearGradient>
<linearGradient id="paint9_linear_8396_80825" x1="48.596" y1="24.8972" x2="140.516" y2="11.5118" gradientUnits="userSpaceOnUse">
<stop stop-color="#905CFF"/>
<stop offset="1" stop-color="#6966E0"/>
</linearGradient>
<linearGradient id="paint10_linear_8396_80825" x1="48.596" y1="24.8972" x2="140.516" y2="11.5118" gradientUnits="userSpaceOnUse">
<stop stop-color="#905CFF"/>
<stop offset="1" stop-color="#6966E0"/>
</linearGradient>
<linearGradient id="paint11_linear_8396_80825" x1="48.596" y1="24.8972" x2="140.516" y2="11.5118" gradientUnits="userSpaceOnUse">
<stop stop-color="#905CFF"/>
<stop offset="1" stop-color="#6966E0"/>
</linearGradient>
<linearGradient id="paint12_linear_8396_80825" x1="48.596" y1="24.8972" x2="140.516" y2="11.5118" gradientUnits="userSpaceOnUse">
<stop stop-color="#905CFF"/>
<stop offset="1" stop-color="#6966E0"/>
</linearGradient>
<clipPath id="clip0_8396_80825">
<rect width="34.6636" height="30.6964" fill="white" transform="translate(0 0.651855)"/>
</clipPath>
<clipPath id="clip1_8396_80825">
<rect x="3.98926" y="1.04053" width="25.9293" height="3.98913" rx="1.99457" fill="white"/>
</clipPath>
<clipPath id="clip2_8396_80825">
<rect width="92.7724" height="30.6916" fill="white" transform="translate(45.6641 0.654297)"/>
</clipPath>
</defs>
</svg>
